<?xml version="1.0" standalone="no"?>
<!DOCTYPE svg PUBLIC "-//W3C//DTD SVG 20010904//EN"
 "http://www.w3.org/TR/2001/REC-SVG-20010904/DTD/svg10.dtd">
<svg version="1.0" xmlns="http://www.w3.org/2000/svg"
 width="4584.000000pt" height="3335.000000pt" viewBox="0 0 4584.000000 3335.000000"
 preserveAspectRatio="xMidYMid meet">

<g transform="translate(0.000000,3335.000000) scale(0.100000,-0.100000)"
fill="#000000" stroke="none">
<path d="M10336 29244 c-257 -33 -477 -98 -701 -208 -256 -126 -440 -260 -640
-468 -177 -182 -303 -378 -368 -568 -32 -94 -57 -215 -57 -276 l0 -46 -83 78
c-206 195 -521 303 -971 335 -339 25 -755 -29 -1071 -138 -125 -43 -332 -142
-450 -215 -565 -351 -915 -885 -1022 -1558 -25 -162 -25 -567 0 -730 83 -532
286 -990 614 -1386 293 -355 888 -801 1551 -1163 73 -40 135 -71 137 -69 1 1
30 128 63 281 33 153 62 280 64 283 3 2 88 1 189 -3 l184 -8 42 -260 c23 -143
44 -274 48 -292 5 -27 19 -41 95 -89 l89 -56 3 -116 3 -115 205 -82 c334 -133
1059 -384 1727 -596 l132 -42 -57 -40 c-265 -185 -516 -497 -602 -749 -55
-163 -65 -234 -64 -463 0 -235 16 -353 80 -608 33 -133 117 -392 162 -504 l21
-52 -52 -5 c-29 -3 -241 -7 -471 -8 l-419 -3 -213 980 c-117 539 -258 1187
-313 1440 -55 253 -111 507 -123 565 -12 58 -22 106 -23 107 0 1 -84 -11 -185
-28 -102 -16 -201 -30 -220 -30 -43 -1 -189 -18 -213 -25 -16 -5 -17 -102 -15
-1906 l3 -1901 560 -269 559 -269 745 -107 744 -106 -6 -375 c-21 -1165 -132
-2377 -323 -3526 -99 -594 -219 -1198 -410 -2060 -213 -958 -237 -1090 -238
-1300 -1 -123 1 -133 27 -186 45 -92 49 -93 372 -85 237 6 409 14 961 42 l131
7 5 -33 c3 -20 -132 -828 -328 -1959 -183 -1059 -344 -1993 -358 -2076 -15
-82 -42 -242 -61 -354 -29 -168 -33 -206 -22 -212 11 -7 10 -38 -9 -186 -12
-98 -22 -178 -21 -179 1 0 106 -76 234 -167 127 -92 238 -170 246 -173 14 -5
297 210 297 226 0 9 -194 277 -223 308 l-21 22 58 178 c32 97 354 1093 715
2212 l658 2035 43 230 c23 127 44 232 46 234 6 6 296 32 302 27 2 -3 15 -49
29 -103 l24 -98 -7 -2586 -7 -2586 256 -142 c141 -77 260 -141 265 -141 5 0
67 61 137 135 l128 136 -25 27 c-161 178 -233 252 -244 252 -18 0 -18 25 1
130 26 142 405 2498 405 2513 0 8 -85 54 -212 115 -117 55 -214 104 -215 109
-2 4 124 166 278 358 155 193 288 359 295 370 10 15 274 1599 274 1644 0 4 30
13 68 21 208 41 506 132 621 189 163 83 255 195 303 369 65 234 -12 998 -183
1842 -151 738 -476 1998 -719 2787 -59 190 -271 833 -296 897 -4 11 141 -80
339 -213 190 -127 354 -231 364 -231 22 0 1906 289 1908 293 1 1 27 92 58 202
51 180 136 609 124 622 -3 2 -411 -3 -908 -11 l-904 -15 -49 47 c-26 26 -465
468 -974 982 l-926 935 -143 30 c-79 16 -143 32 -143 36 0 4 12 12 28 18 15 6
37 20 50 29 l23 18 -40 136 c-93 320 -149 649 -186 1089 -27 324 -69 510 -160
694 -29 61 -74 133 -99 161 -75 85 -286 214 -349 214 -7 0 -44 30 -82 68 -71
68 -154 119 -245 150 l-49 17 121 175 c314 457 733 1093 931 1415 188 305 484
870 631 1205 227 516 387 999 476 1440 51 249 60 335 60 552 0 575 -195 1126
-567 1603 -405 518 -990 856 -1626 940 -146 19 -449 18 -601 -1z m1003 -7989
c143 -69 260 -211 340 -412 93 -235 126 -389 125 -583 -2 -163 -22 -250 -90
-389 -55 -112 -158 -227 -253 -281 -33 -19 -61 -40 -61 -46 0 -6 6 -32 14 -57
9 -31 10 -47 3 -50 -6 -2 28 -11 75 -21 l85 -18 7 -194 c4 -107 9 -209 11
-227 2 -18 6 -112 10 -210 4 -98 8 -197 10 -220 2 -23 6 -114 10 -202 5 -142
26 -584 40 -875 3 -58 10 -211 15 -340 6 -129 13 -266 15 -305 3 -39 1 -65 -4
-60 -4 6 -84 159 -176 340 -93 182 -343 672 -557 1089 -213 418 -388 760 -388
761 0 2 39 15 88 30 167 52 232 101 232 176 0 69 -33 116 -268 380 -151 171
-248 332 -288 479 -25 96 -24 253 4 353 48 170 131 305 270 439 103 99 175
150 320 225 140 72 221 131 274 198 23 30 47 55 53 55 6 0 44 -16 84 -35z"/>
<path d="M27890 27983 c-121 -8 -242 -27 -245 -37 -4 -12 -35 -1731 -35 -1913
l0 -113 120 0 120 0 0 188 c0 104 3 305 7 447 l6 258 146 -6 c163 -6 227 -22
294 -78 81 -67 110 -145 176 -475 27 -137 58 -271 68 -299 l19 -50 123 -3
c115 -2 123 -1 116 15 -21 52 -40 133 -90 373 -55 270 -75 342 -115 420 -28
55 -112 144 -150 160 -17 7 -30 15 -30 19 0 3 30 22 68 41 130 67 228 194 267
345 19 76 19 234 0 309 -50 191 -181 319 -381 370 -115 30 -312 42 -484 29z
m358 -218 c122 -29 199 -86 247 -182 24 -49 30 -73 33 -154 7 -152 -28 -243
-123 -327 -84 -73 -131 -86 -350 -90 l-190 -3 3 252 c2 139 6 309 10 378 l7
126 35 6 c70 13 265 9 328 -6z"/>
<path d="M26651 27934 c-267 -19 -486 -35 -487 -37 -6 -5 134 -2039 140 -2044
7 -7 1012 59 1026 67 8 5 -1 205 -11 214 -2 2 -180 -8 -396 -22 -216 -15 -394
-24 -397 -22 -7 8 -54 725 -47 731 3 3 164 16 356 29 193 12 351 23 353 25 1
1 0 50 -4 109 l-7 106 -36 -1 c-20 0 -181 -10 -358 -22 -178 -13 -323 -20
-324 -17 0 3 -10 148 -22 322 l-23 318 31 5 c33 5 654 45 698 45 25 0 27 3 27
38 0 86 -13 192 -24 191 -6 -1 -229 -17 -495 -35z"/>
<path d="M25180 27783 c-256 -36 -466 -66 -467 -66 -2 -3 278 -2031 282 -2035
4 -5 1016 136 1022 142 7 7 -19 206 -27 211 -4 3 -182 -20 -396 -49 -214 -30
-391 -52 -393 -51 -5 5 -104 726 -99 730 1 2 161 24 353 51 193 26 351 48 353
50 5 3 -26 205 -32 211 -2 3 -156 -16 -341 -42 -186 -25 -344 -45 -353 -43
-13 3 -24 60 -59 317 -24 173 -42 316 -40 318 2 2 170 26 373 54 203 28 371
53 372 54 2 2 -2 50 -10 107 l-13 103 -30 2 c-16 1 -239 -28 -495 -64z"/>
<path d="M23725 27536 c-357 -73 -650 -137 -650 -142 0 -5 9 -55 19 -112 16
-83 22 -101 35 -98 38 11 533 107 536 104 2 -2 83 -403 181 -893 97 -489 179
-892 180 -894 5 -6 234 41 234 48 0 3 -80 408 -179 899 -98 490 -177 892 -177
892 8 0 550 110 552 112 1 2 -8 51 -19 111 -19 95 -23 107 -42 106 -11 0 -312
-60 -670 -133z"/>
<path d="M22655 27303 c-49 -14 -92 -26 -94 -28 -3 -4 28 -123 195 -750 89
-332 168 -605 224 -770 22 -65 40 -121 40 -123 0 -2 -32 36 -72 85 -39 48
-117 140 -172 203 -122 139 -1084 1120 -1098 1120 -6 0 -64 -14 -129 -32 -96
-25 -118 -34 -115 -47 6 -18 170 -636 381 -1436 76 -286 141 -523 145 -528 11
-12 210 44 210 60 0 35 -302 1153 -391 1446 -34 109 -59 201 -56 203 2 2 26
-24 53 -58 125 -160 207 -248 806 -864 l487 -501 113 30 c62 16 115 30 116 32
2 2 -115 449 -259 994 -206 775 -267 991 -279 990 -8 0 -55 -12 -105 -26z"/>
<path d="M20875 26795 c-94 -27 -109 -35 -107 -51 2 -11 84 -293 182 -629 98
-335 183 -644 190 -685 54 -320 -47 -523 -295 -595 -178 -52 -357 35 -470 230
-70 120 -91 183 -276 819 -100 341 -183 623 -185 625 -8 9 -232 -63 -228 -73
2 -6 19 -65 38 -131 185 -641 324 -1106 352 -1180 61 -156 119 -250 219 -350
116 -117 187 -153 339 -175 89 -13 202 1 315 41 113 39 182 81 262 160 82 82
141 194 165 319 20 100 15 302 -11 418 -20 89 -365 1274 -374 1283 -3 4 -55
-8 -116 -26z"/>
<path d="M18672 26211 c-100 -23 -112 -28 -108 -45 3 -10 107 -460 232 -1000
125 -540 228 -982 229 -984 2 -3 997 227 1002 231 3 3 -44 207 -49 212 -2 2
-174 -36 -383 -85 -209 -49 -383 -85 -386 -82 -3 4 -97 403 -209 887 -111 484
-205 883 -209 886 -3 3 -57 -6 -119 -20z"/>
<path d="M17523 26029 c-96 -9 -200 -42 -298 -92 -106 -54 -241 -188 -304
-300 -185 -329 -185 -818 -1 -1206 129 -270 320 -438 571 -502 79 -20 276 -17
364 5 433 112 676 522 627 1058 -27 292 -113 544 -246 717 -183 237 -431 349
-713 320z m202 -235 c161 -45 324 -215 411 -429 183 -447 106 -968 -168 -1145
-303 -197 -642 -58 -825 336 -101 221 -135 567 -77 801 83 339 359 521 659
437z"/>
<path d="M16469 25853 l-97 -4 -117 -467 c-178 -706 -241 -968 -280 -1161 -19
-96 -37 -176 -39 -178 -1 -2 -13 36 -26 83 -37 142 -138 452 -294 909 -82 237
-173 504 -204 594 l-55 164 -126 -7 c-69 -4 -127 -8 -128 -10 -2 -1 42 -130
97 -287 55 -156 214 -608 353 -1004 l253 -720 128 1 c70 1 131 5 135 10 5 5
124 446 266 979 141 534 265 1000 275 1038 l19 67 -32 -2 c-18 -1 -75 -4 -128
-5z"/>
<path d="M27780 24203 c0 -9 -692 -2328 -697 -2337 -10 -17 -1211 -1614 -1249
-1662 l-33 -41 -113 22 c-62 12 -134 25 -160 29 l-48 7 0 -31 c0 -49 -43 -84
-141 -115 -112 -36 -295 -46 -382 -21 -64 19 -66 22 -94 131 -37 148 -24 132
-101 139 -193 19 -422 -44 -611 -169 -48 -32 -405 -184 -1305 -554 l-1239
-511 -641 141 c-352 77 -657 144 -676 148 l-36 8 -149 -212 c-82 -117 -150
-216 -152 -221 -1 -7 1025 -765 1298 -960 l36 -25 922 111 c508 62 924 110
926 108 11 -10 -244 -1058 -359 -1479 -177 -647 -341 -1121 -455 -1320 -21
-37 -94 -142 -161 -235 -296 -406 -391 -598 -393 -799 -2 -144 38 -240 147
-354 155 -162 405 -278 864 -400 l42 -12 0 -959 c0 -662 -3 -960 -10 -960 -6
0 -61 9 -123 20 -301 53 -592 53 -897 -1 -143 -25 -301 -66 -316 -82 -7 -7
-26 -57 -44 -112 -18 -55 -36 -105 -41 -110 -4 -6 -25 -17 -46 -24 -56 -20
-258 -122 -338 -171 -110 -68 -250 -174 -338 -260 l-82 -78 -75 23 c-41 13
-93 27 -114 32 -22 4 -41 15 -44 23 -3 13 -2 13 8 0 9 -12 11 -12 8 -1 -6 21
-47 21 -62 -1 -8 -11 -25 -18 -42 -18 -46 1 -87 -6 -112 -19 -12 -6 -22 -8
-21 -4 4 22 -2 43 -12 43 -5 0 -7 -4 -4 -10 3 -5 -1 -10 -10 -10 -11 0 -15 5
-12 15 4 8 3 16 -1 19 -4 3 -9 -5 -9 -16 -1 -12 5 -22 17 -25 17 -5 18 -7 4
-20 -8 -8 -20 -16 -27 -17 -6 -1 -18 -6 -26 -10 -10 -7 -12 -5 -6 3 4 7 -4 5
-19 -4 -14 -10 -26 -14 -26 -10 0 4 -7 2 -15 -5 -16 -14 -35 -6 -35 16 0 8 -5
14 -11 14 -5 0 -8 -4 -5 -9 4 -5 0 -12 -6 -14 -8 -3 -6 -6 5 -6 9 -1 17 -6 17
-12 0 -6 -7 -9 -15 -5 -8 3 -15 2 -15 -3 0 -4 -14 -8 -30 -8 -22 0 -27 3 -18
10 9 6 8 7 -5 3 -10 -3 -21 -6 -24 -6 -3 0 0 -7 7 -15 11 -13 8 -15 -19 -15
-17 0 -31 -5 -31 -11 0 -8 -6 -7 -17 2 -9 8 -14 9 -10 3 8 -14 -20 -27 -35
-18 -6 4 -5 10 3 16 14 10 2 7 -38 -9 -11 -4 -14 -3 -9 5 4 7 3 12 -3 12 -5 0
-13 -4 -16 -10 -3 -5 0 -10 7 -10 10 0 9 -3 -2 -11 -13 -9 -12 -10 3 -5 54 19
53 18 33 2 -19 -16 -42 -20 -80 -16 -10 1 -15 -3 -12 -9 6 -10 -14 -18 -57
-25 -9 -1 -20 -5 -23 -9 -4 -4 -13 -2 -21 4 -10 9 -13 8 -13 -4 0 -20 -33 -27
-55 -11 -19 14 -40 9 -30 -6 3 -5 13 -6 22 -3 10 4 14 2 10 -4 -6 -9 -25 -15
-87 -26 -9 -2 -21 -6 -28 -11 -15 -9 -16 6 0 22 9 9 9 15 1 23 -8 8 -11 6 -10
-7 1 -10 -6 -20 -15 -22 -11 -2 -18 3 -18 13 0 9 -5 13 -10 10 -8 -5 -7 -11 1
-21 11 -14 10 -15 -13 -18 -6 0 -13 -8 -15 -16 -4 -13 -3 -13 6 0 6 8 11 11
11 7 0 -4 10 -3 23 3 22 11 22 11 -2 -9 -13 -12 -29 -21 -35 -21 -7 0 -49 -55
-93 -122 -216 -328 -521 -565 -889 -691 -363 -125 -785 -121 -1144 10 -52 19
-111 40 -130 46 -19 6 -37 15 -40 19 -8 10 -43 3 -48 -10 -5 -17 -23 -15 -37
4 -10 15 -14 14 -37 -11 -16 -17 -32 -26 -41 -22 -9 3 -18 1 -20 -6 -3 -9 -8
-9 -20 2 -18 14 -47 9 -47 -9 0 -8 6 -8 20 0 14 7 20 7 20 0 0 -5 -7 -11 -15
-11 -24 -2 -29 -4 -43 -13 -7 -4 -16 -5 -19 -2 -3 3 -14 1 -24 -5 -14 -7 -19
-7 -17 2 2 6 -3 14 -11 16 -10 4 -11 -1 -6 -18 5 -19 4 -21 -4 -9 -9 13 -11
12 -11 -3 0 -14 -5 -17 -21 -12 -13 5 -19 3 -15 -3 3 -5 -5 -12 -19 -14 -13
-3 -22 -1 -19 3 3 5 0 9 -5 9 -6 0 -11 -4 -11 -8 0 -11 -51 -35 -58 -27 -3 3
1 5 9 5 12 0 11 2 -1 11 -12 8 -10 9 8 4 12 -3 22 -3 22 2 0 5 -12 10 -26 11
-18 1 -25 -2 -21 -11 8 -20 -5 -35 -33 -39 -14 -2 -31 -7 -39 -12 -10 -6 -12
-5 -7 2 4 7 2 12 -3 12 -6 0 -11 -7 -11 -15 0 -8 -5 -15 -11 -15 -5 0 -7 5 -4
10 3 6 2 10 -4 10 -5 0 -11 -4 -13 -10 -1 -5 -14 -11 -28 -12 -14 -2 -28 -7
-31 -11 -3 -5 -12 -9 -20 -10 -8 -2 -20 -7 -28 -11 -10 -6 -12 -5 -7 2 7 12
-5 16 -33 13 -7 -2 -11 2 -7 7 3 5 -1 9 -8 9 -11 0 -12 -4 -3 -18 6 -10 14
-16 18 -13 4 2 10 0 13 -5 3 -5 -3 -11 -14 -14 -11 -3 -20 -2 -20 3 0 4 -12
11 -27 16 -21 5 -24 8 -10 11 9 3 15 9 12 14 -4 5 -14 5 -25 -1 -13 -7 -20 -6
-24 3 -2 6 -3 1 -1 -13 2 -14 4 -32 5 -40 0 -12 3 -11 11 2 5 10 15 18 22 18
7 0 6 -4 -3 -11 -12 -8 -10 -9 9 -4 15 5 21 3 17 -3 -4 -6 -27 -14 -51 -18
-25 -3 -48 -10 -51 -15 -3 -5 -13 -9 -22 -9 -9 0 -42 -12 -72 -27 -67 -32 -83
-36 -76 -18 2 7 -2 16 -11 19 -9 4 -17 -1 -20 -14 -5 -18 -15 -24 -35 -21 -5
0 -8 -4 -8 -10 0 -8 -4 -8 -13 0 -10 8 -14 7 -14 -4 0 -8 2 -13 5 -11 2 3 15
0 29 -5 21 -8 24 -7 19 7 -4 12 -2 15 9 10 11 -4 15 2 16 22 l1 27 7 -25 c6
-19 2 -29 -13 -40 -12 -8 -22 -14 -24 -12 -1 1 -22 -19 -47 -45 -25 -26 -45
-40 -45 -32 0 8 5 20 10 25 7 7 6 11 -4 11 -8 0 -13 -4 -11 -8 3 -4 -2 -9 -10
-12 -10 -4 -12 -1 -8 10 4 11 2 14 -5 9 -17 -10 -15 -36 2 -36 21 0 27 -28 8
-39 -9 -6 -13 -11 -8 -11 4 0 -3 -15 -18 -34 -14 -19 -26 -42 -26 -51 0 -9 -5
-13 -11 -9 -8 4 -9 0 -4 -15 5 -16 2 -21 -12 -21 -15 0 -16 2 -3 10 12 8 12
10 -3 16 -24 9 -21 23 6 34 12 5 16 9 8 9 -11 1 -10 6 4 21 12 14 21 17 25 9
5 -7 9 -6 13 4 3 7 1 20 -4 28 -6 10 -9 10 -9 2 0 -7 -5 -13 -11 -13 -5 0 -7
4 -4 10 4 6 -2 7 -16 2 -12 -5 -26 -19 -31 -31 -5 -14 -4 -20 2 -16 6 3 10 1
10 -4 0 -6 -4 -11 -10 -11 -14 0 -13 -37 1 -46 8 -4 7 -9 -2 -15 -10 -6 -11
-9 -1 -9 6 0 12 -8 12 -17 0 -16 2 -16 11 -3 9 12 9 11 4 -5 -4 -11 -10 -28
-13 -38 -4 -15 -7 -16 -13 -5 -6 9 -9 7 -9 -9 0 -12 4 -24 10 -28 5 -3 6 -16
2 -28 -9 -26 -7 -125 2 -147 5 -14 12 -57 15 -102 1 -23 36 -38 446 -196 365
-141 411 -156 421 -140 3 4 10 6 15 3 5 -4 9 0 9 7 0 10 2 10 9 -1 7 -11 11
-10 20 5 6 11 11 15 11 10 0 -5 6 -3 13 3 8 6 22 12 33 14 10 2 26 7 34 10 29
11 75 20 89 18 7 -1 11 2 7 7 -3 5 5 8 17 7 12 -2 21 -7 20 -12 -1 -5 7 -9 17
-9 10 0 18 5 17 11 -1 5 9 10 23 10 14 0 28 5 32 11 4 6 24 10 45 9 21 -2 30
-1 21 2 -10 2 -18 9 -18 14 0 6 -6 7 -12 2 -14 -8 -18 -9 -63 -19 -16 -4 -28
-4 -25 -1 5 5 124 47 126 44 1 -1 4 -13 7 -27 5 -19 1 -29 -13 -38 -12 -7 -20
-8 -20 -2 0 14 -26 12 -38 -3 -9 -10 -2 -13 29 -14 23 -1 37 2 34 8 -4 5 0 9
7 9 8 0 15 -8 16 -17 1 -10 3 -27 4 -38 2 -11 9 -26 15 -33 10 -10 10 -19 2
-34 -6 -11 -8 -22 -5 -26 3 -3 6 0 6 6 0 7 5 12 11 12 6 0 9 -7 5 -15 -3 -8
-2 -15 3 -15 10 0 25 -56 22 -82 -1 -10 3 -18 8 -18 6 0 11 -7 11 -16 0 -9 -5
-12 -12 -8 -7 5 -8 3 -4 -5 5 -7 10 -10 14 -7 3 3 10 -1 16 -9 6 -8 385 -159
841 -336 457 -176 1046 -404 1310 -506 264 -102 496 -187 515 -188 19 -2 39
-4 43 -4 5 -1 5 -5 2 -11 -3 -5 0 -7 9 -4 12 5 12 8 -2 24 -12 14 -19 17 -29
8 -18 -15 -16 0 2 18 8 9 15 13 15 9 0 -3 14 10 31 30 30 34 59 46 59 24 0 -6
-7 -8 -16 -5 -10 4 -13 2 -8 -6 4 -6 3 -9 -2 -6 -12 8 -35 -17 -26 -28 4 -4 1
-4 -7 1 -10 6 -12 4 -7 -4 5 -7 10 -10 13 -7 3 3 14 1 24 -4 12 -7 20 -7 24 0
4 6 12 7 18 3 7 -4 6 1 -2 10 -11 13 -17 15 -28 6 -7 -7 -16 -9 -19 -6 -3 3 6
13 21 23 19 12 25 24 22 40 -2 15 0 21 8 17 7 -2 11 -12 8 -22 -5 -18 9 -33
40 -44 13 -5 17 -3 14 5 -2 7 -9 12 -15 11 -16 -4 -35 24 -22 32 6 4 9 1 8 -6
-2 -8 8 -14 26 -14 20 0 31 -7 37 -22 9 -24 38 -37 62 -28 18 8 32 -11 16 -21
-8 -5 -9 -3 -4 7 8 12 6 12 -8 0 -21 -16 -21 -16 -1 -31 12 -11 15 -11 12 0
-2 8 6 15 17 17 16 3 17 2 5 -6 -9 -7 -10 -11 -3 -11 6 0 15 5 18 10 3 6 16 8
29 4 15 -3 256 72 692 217 368 122 673 225 677 229 5 4 1 50 -9 101 l-16 94
146 293 146 292 498 0 497 0 77 -154 77 -154 34 10 35 11 -33 71 c-18 39 -55
116 -82 171 l-50 100 149 453 149 454 72 32 c40 18 173 77 297 130 l225 97
425 -257 c234 -141 427 -258 429 -260 8 -7 -62 -400 -85 -476 -4 -14 -1 -15
31 -5 20 6 40 18 45 27 11 20 55 248 71 365 6 50 15 96 19 103 3 7 44 45 89
85 l83 72 3 67 c2 44 -1 65 -7 61 -7 -3 -9 8 -6 31 2 20 0 36 -4 36 -13 0 -9
35 5 49 9 11 9 12 0 7 -8 -4 -15 3 -19 19 -5 19 -1 30 12 40 18 13 18 14 -5 8
-22 -6 -23 -4 -19 25 3 19 0 29 -5 25 -6 -4 -8 3 -5 15 4 12 2 25 -4 28 -5 3
-8 15 -5 25 3 11 1 19 -4 19 -5 0 -9 4 -9 9 0 6 16 8 35 7 19 -2 33 0 30 4 -3
5 -14 7 -24 5 -28 -5 -48 15 -59 57 -10 35 0 64 11 36 3 -8 6 -5 6 6 1 12 -4
16 -14 12 -11 -4 -19 3 -25 20 -14 35 -13 37 13 31 20 -6 22 -2 23 37 2 31 -2
43 -12 43 -8 0 -14 -4 -14 -9 0 -4 -5 -8 -11 -8 -5 0 -7 5 -3 12 4 7 3 8 -5 4
-18 -12 -2 -28 21 -20 16 5 18 3 12 -7 -5 -8 -9 -18 -9 -24 0 -5 -7 -11 -15
-13 -18 -3 -55 91 -44 110 4 6 3 8 -3 5 -12 -8 -26 20 -17 34 3 5 0 9 -6 9 -6
0 -8 5 -5 10 4 6 10 8 15 5 4 -3 7 1 7 8 -7 62 22 348 57 570 24 149 70 445
102 657 33 212 60 376 61 365 9 -73 183 -1753 182 -1760 0 -6 -4 -1 -9 10 -8
18 -9 18 -9 2 -1 -10 -5 -16 -9 -13 -5 3 -9 -2 -9 -10 0 -10 4 -11 10 -5 7 7
17 6 30 0 12 -7 17 -7 13 -1 -10 17 19 21 50 6 16 -7 47 -20 68 -27 22 -8 42
-20 44 -27 3 -9 -1 -11 -11 -7 -16 6 -33 -21 -21 -32 4 -3 9 0 11 7 3 6 9 12
14 12 6 0 7 -4 4 -10 -3 -5 -2 -10 4 -10 5 0 13 5 16 10 5 8 12 7 23 -2 14
-10 15 -10 5 2 -19 21 -16 35 4 19 9 -8 24 -13 35 -11 10 2 18 -2 18 -7 0 -6
11 -11 24 -11 14 0 28 -5 31 -10 3 -5 16 -10 28 -10 17 0 19 -2 8 -9 -8 -5
-19 -7 -25 -5 -7 3 -13 -7 -14 -20 -1 -21 2 -24 26 -22 15 2 33 4 40 5 6 0 12
6 12 12 0 5 -5 7 -12 3 -18 -11 -58 -13 -58 -3 0 5 6 9 13 10 6 0 24 2 40 4
15 2 27 -1 27 -6 0 -6 5 -7 12 -3 7 5 9 2 5 -8 -6 -17 8 -19 31 -5 7 5 12 4
12 -2 0 -6 5 -10 11 -8 14 3 21 -31 8 -39 -5 -3 -9 -13 -9 -22 1 -11 7 -6 18
13 15 28 26 33 50 25 4 -1 10 -2 15 -1 4 0 7 -4 7 -10 0 -5 4 -8 9 -5 13 9 62
-12 78 -32 8 -9 12 -11 8 -5 -3 7 -1 13 4 13 6 0 11 -5 11 -11 0 -6 6 -9 14
-6 8 3 22 -1 33 -8 10 -8 24 -15 31 -15 7 0 20 -7 28 -15 8 -8 22 -11 30 -8
13 5 15 1 9 -15 -4 -14 -2 -22 5 -22 6 0 9 4 5 9 -9 15 16 24 28 11 9 -10 9
-11 -2 -5 -9 5 -12 4 -8 -2 4 -6 19 -8 34 -6 16 3 23 1 17 -4 -9 -6 -8 -11 2
-21 12 -10 14 -10 14 2 0 20 38 9 45 -14 3 -9 3 -25 -1 -34 -7 -19 7 -21 24
-4 9 9 12 9 12 0 0 -7 5 -12 11 -12 8 0 9 4 0 13 -6 8 -7 18 -3 22 4 5 -1 6
-10 2 -9 -3 -19 0 -22 9 -3 8 -4 14 -2 14 10 0 76 -31 76 -36 0 -3 -4 -3 -8 0
-5 3 -9 -2 -9 -10 0 -9 6 -13 14 -9 8 3 17 5 19 5 3 0 2 6 -1 13 -4 6 -1 5 7
-3 7 -8 22 -15 33 -15 11 0 19 -5 18 -11 -1 -7 6 -10 17 -7 11 3 26 0 33 -6 8
-6 17 -8 20 -4 4 3 7 1 7 -5 0 -7 3 -11 8 -11 30 5 44 -2 39 -21 -6 -22 8 -28
16 -7 2 6 8 0 12 -15 4 -16 11 -28 16 -28 6 0 5 9 -1 21 -7 11 -9 23 -6 26 3
3 9 -2 12 -11 5 -12 9 -14 14 -6 9 15 60 -8 60 -27 0 -9 6 -12 18 -9 11 4 22
-2 30 -14 7 -11 8 -20 3 -20 -6 0 -15 8 -20 18 -7 11 -10 13 -11 3 0 -11 -3
-11 -15 -1 -10 9 -15 9 -15 1 0 -6 5 -11 10 -11 20 0 25 -2 53 -22 17 -13 27
-15 25 -7 -2 7 2 13 9 14 6 0 15 3 19 7 3 4 -3 6 -15 3 -13 -2 -25 3 -31 16
-10 18 -9 18 17 7 15 -7 36 -21 46 -32 14 -17 16 -17 11 -4 -8 22 0 23 21 2 9
-9 26 -18 38 -19 12 -1 27 -3 33 -4 5 0 75 -113 155 -251 79 -137 147 -249
150 -250 3 0 -1 51 -8 112 -8 62 -31 261 -51 443 l-38 330 187 1562 c103 859
189 1567 191 1573 2 6 18 0 38 -15 48 -36 210 -131 238 -140 117 -36 182 208
182 684 0 172 -32 927 -50 1181 -20 282 -42 503 -90 900 -16 135 -54 520 -85
855 -84 928 -106 1094 -191 1480 -75 337 -206 822 -282 1045 l-29 85 624 1242
625 1243 -4 1344 c-2 879 -6 1348 -13 1355 -8 7 -405 21 -405 14z m-4632
-12636 c204 -73 502 -243 692 -394 102 -81 229 -201 313 -297 83 -94 86 -90
-80 -101 l-111 -7 -104 104 c-179 181 -355 306 -588 419 -80 39 -152 74 -160
78 -13 7 -31 55 -86 224 -7 22 -8 22 124 -26z m-1347 -562 l398 -290 -2 -309
-2 -310 -395 -287 c-217 -158 -401 -288 -409 -288 -7 -1 -143 54 -301 120
l-289 121 -22 93 -22 92 41 62 c96 144 124 302 82 465 -28 112 -73 190 -157
272 l-73 72 78 69 c106 96 208 173 316 240 107 66 325 174 345 171 7 -2 192
-133 412 -293z m1435 225 c211 -104 409 -248 577 -417 l78 -79 -114 -485 -113
-484 -270 -118 c-148 -65 -280 -120 -294 -123 -20 -4 -98 49 -420 284 l-395
289 0 308 0 308 398 289 c220 158 406 288 415 288 9 0 71 -27 138 -60z m-2896
-311 c0 -5 -7 -9 -15 -9 -15 0 -20 12 -9 23 8 8 24 -1 24 -14z m4260 -724 c7
-9 8 -15 2 -15 -5 0 -12 7 -16 15 -3 8 -4 15 -2 15 2 0 9 -7 16 -15z m630
-255 c0 -5 -5 -10 -11 -10 -5 0 -7 5 -4 10 3 6 8 10 11 10 2 0 4 -4 4 -10z
m-8276 -92 c-3 -4 -9 -8 -15 -8 -5 0 -9 4 -9 8 0 5 7 9 15 9 8 0 12 -4 9 -9z
m-74 -2 c0 -3 -4 -8 -10 -11 -5 -3 -10 -1 -10 4 0 6 5 11 10 11 6 0 10 -2 10
-4z m4203 -282 c149 -63 280 -120 290 -127 13 -9 63 -149 163 -457 79 -245
144 -451 144 -458 0 -17 -263 -531 -272 -532 -4 0 -10 9 -13 20 -14 45 -128
181 -190 227 -36 27 -261 150 -501 273 -240 124 -440 228 -445 231 -6 3 -17
35 -25 70 -8 35 -42 149 -75 252 -33 104 -59 193 -57 198 6 19 673 427 691
422 9 -2 140 -56 290 -119z m-5433 -243 c0 -12 -20 -25 -27 -18 -7 7 6 27 18
27 5 0 9 -4 9 -9z m1150 -735 c0 -3 -4 -8 -10 -11 -5 -3 -10 -1 -10 4 0 6 5
11 10 11 6 0 10 -2 10 -4z"/>
<path d="M20775 23678 c-2 -7 -20 -103 -40 -213 -20 -110 -38 -201 -39 -203
-2 -1 -30 9 -61 23 -32 14 -59 24 -61 22 -5 -4 78 -512 85 -518 3 -4 69 -10
146 -14 l141 -7 60 149 61 148 -13 300 c-7 165 -13 306 -13 313 -1 9 -34 12
-131 12 -96 0 -132 -3 -135 -12z"/>
<path d="M22990 23270 c-113 -20 -252 -61 -312 -91 -162 -83 -201 -265 -97
-459 31 -58 66 -102 212 -266 114 -128 176 -228 277 -444 113 -243 158 -320
234 -395 126 -126 407 -235 607 -237 130 0 224 28 486 148 216 99 264 118 364
144 254 66 566 84 722 42 144 -39 234 -107 258 -194 21 -78 13 -258 -21 -481
-17 -114 -30 -224 -28 -243 l3 -35 80 40 c46 23 116 71 164 113 95 81 285 285
361 387 223 295 284 710 159 1069 -78 223 -225 410 -390 497 -102 53 -276 107
-539 165 -129 28 -311 76 -403 106 -92 29 -207 61 -255 70 -117 22 -248 14
-362 -21 -154 -47 -193 -55 -300 -55 -116 0 -192 15 -420 80 -218 62 -342 80
-533 79 -110 0 -196 -7 -267 -19z"/>
<path d="M30860 22490 c-130 -35 -214 -83 -311 -179 -58 -57 -97 -106 -117
-146 l-30 -61 -74 -17 c-92 -22 -216 -82 -293 -141 -74 -57 -260 -258 -320
-346 -60 -87 -72 -145 -85 -390 -10 -209 -25 -299 -69 -433 -31 -91 -65 -128
-172 -183 -78 -40 -95 -54 -134 -108 -85 -119 -135 -256 -121 -330 21 -112
178 -188 447 -216 180 -20 252 1 294 85 25 50 25 156 1 367 -19 178 -20 297
-2 400 32 179 88 283 216 409 128 125 264 200 428 235 l82 17 28 -25 c15 -14
115 -90 222 -170 303 -225 397 -341 408 -503 6 -92 -7 -143 -66 -270 -46 -100
-63 -181 -48 -238 3 -13 30 -61 60 -106 75 -112 91 -163 90 -286 0 -76 -5
-112 -21 -153 -12 -28 -18 -54 -15 -56 4 -2 187 -57 407 -121 449 -131 461
-132 520 -75 93 90 165 461 121 615 -10 32 -39 102 -66 155 -95 189 -93 285 9
642 50 176 65 269 58 365 -11 150 -82 243 -291 385 -182 124 -234 181 -386
428 -104 169 -149 230 -221 302 -108 105 -227 157 -379 164 -74 3 -112 0 -170
-16z"/>
<path d="M36125 22504 c-11 -3 -76 -21 -145 -40 -69 -18 -190 -43 -270 -54
-215 -30 -300 -61 -383 -139 -97 -91 -103 -151 -53 -596 20 -176 54 -486 76
-690 27 -247 46 -377 55 -392 25 -38 52 -46 129 -39 208 20 438 77 690 170
187 70 315 105 481 131 55 9 154 32 220 51 148 42 205 44 257 7 101 -69 192
-265 248 -529 28 -133 37 -378 17 -451 -12 -44 -12 -53 -1 -53 24 0 98 33 144
64 43 29 72 58 250 251 146 158 225 300 278 494 23 85 25 115 25 261 0 138 -3
178 -21 245 -33 118 -89 227 -179 345 -105 138 -125 176 -162 295 -47 155
-118 259 -221 325 -84 53 -133 62 -405 70 -314 10 -327 14 -552 142 -193 110
-250 131 -363 134 -52 2 -104 0 -115 -2z"/>
<path d="M17269 22391 c-42 -14 -63 -27 -140 -92 -152 -127 -216 -130 -348
-14 -81 71 -137 95 -223 95 -68 0 -123 -15 -268 -73 -169 -67 -165 -66 -337
-82 -161 -15 -210 -29 -256 -73 -37 -35 -51 -62 -93 -185 -47 -136 -162 -368
-219 -440 -54 -68 -104 -106 -237 -178 -160 -87 -234 -172 -245 -283 -4 -37 2
-79 21 -151 26 -97 27 -106 21 -295 -5 -156 -4 -209 9 -266 42 -195 106 -270
251 -294 50 -8 179 -6 246 5 42 6 157 -14 198 -35 54 -27 109 -95 126 -155 8
-27 19 -106 24 -175 17 -200 52 -292 158 -401 111 -115 232 -164 387 -157 76
3 102 9 156 36 143 68 259 235 296 425 16 81 16 99 2 245 -16 156 -13 233 12
322 16 55 12 157 -6 193 -9 17 -40 54 -69 82 -47 44 -54 56 -60 102 -7 51 0
125 14 151 4 7 14 -11 25 -45 26 -82 95 -215 157 -303 106 -150 259 -279 412
-345 l65 -28 4 -71 c8 -112 55 -183 133 -200 26 -5 305 34 358 50 21 7 22 53
3 167 -9 55 -9 80 -2 85 6 5 33 21 61 37 58 34 132 100 188 170 22 28 37 41
33 30 -25 -67 -38 -155 -32 -220 8 -89 60 -241 117 -341 51 -89 176 -227 250
-275 45 -29 60 -32 143 -37 201 -10 388 57 537 195 81 76 135 154 203 295 62
130 82 150 184 183 144 46 177 148 136 422 -10 65 -15 146 -12 203 3 82 8 102
33 148 33 60 62 86 190 165 138 85 185 145 187 241 1 91 -28 161 -100 238
-121 129 -273 146 -529 59 l-113 -38 0 27 c0 44 -30 132 -62 182 -41 65 -142
157 -215 196 -34 18 -122 57 -195 88 -174 72 -238 111 -388 238 -158 135 -241
179 -335 179 -105 0 -189 -47 -331 -186 -63 -60 -116 -108 -118 -106 -1 2 -22
32 -45 67 -108 161 -261 256 -362 223z"/>
<path d="M34426 17761 c-16 -54 -76 -361 -87 -441 -17 -138 -15 -383 6 -525
66 -458 297 -908 655 -1279 l118 -122 -93 -424 c-51 -234 -92 -426 -90 -428
10 -10 580 -131 585 -124 4 4 46 187 94 407 48 220 90 410 93 421 3 14 17 25
43 33 21 6 54 18 74 26 l36 15 -66 99 -65 99 6 98 c3 55 8 108 10 120 3 13 33
38 80 67 l75 47 100 -15 c55 -8 102 -15 105 -15 4 0 -2 13 -11 29 -17 29 -17
30 6 49 23 19 24 19 139 -33 64 -29 121 -50 128 -48 8 3 2 27 -18 74 -15 39
-30 77 -31 85 -2 11 137 104 426 288 l430 272 29 80 c32 87 113 399 123 473
l6 46 -629 139 c-575 127 -2130 471 -2230 494 -36 8 -43 7 -47 -7z m1364 -786
c514 -113 938 -206 942 -208 10 -3 -53 -141 -107 -232 -163 -278 -423 -513
-743 -674 -93 -47 -251 -111 -332 -135 l-55 -16 -115 117 c-190 194 -340 415
-433 633 -85 203 -117 346 -124 569 -5 156 -5 163 13 158 11 -3 440 -98 954
-212z"/>
<path d="M18631 13629 c-167 -33 -310 -109 -430 -230 -63 -64 -142 -179 -162
-238 -12 -33 -12 -33 -63 -27 -116 14 -373 15 -471 1 -348 -47 -693 -206 -929
-426 l-76 -71 -78 40 c-131 68 -213 87 -377 86 -125 -1 -149 -4 -225 -29 -198
-64 -329 -161 -439 -323 -93 -138 -132 -269 -133 -447 0 -90 6 -140 21 -200
79 -299 308 -520 609 -589 39 -9 86 -16 105 -16 34 0 34 -1 46 -61 53 -267
181 -546 344 -751 18 -23 26 -42 21 -50 -4 -7 -4 -10 1 -6 4 4 41 -27 81 -70
60 -63 70 -79 59 -88 -8 -6 -12 -14 -8 -17 3 -4 12 1 19 11 13 16 15 15 33 -8
11 -14 21 -23 24 -20 2 3 12 34 22 70 90 333 328 676 618 893 76 56 246 162
251 156 2 -2 13 -22 24 -44 29 -57 117 -137 185 -165 l57 -25 64 -195 63 -195
-26 -7 c-38 -12 -164 8 -235 37 -105 42 -163 30 -186 -39 -9 -27 -8 -42 4 -71
13 -29 27 -41 78 -64 217 -99 475 -84 684 40 127 75 279 260 279 340 0 105
-143 132 -191 36 -40 -79 -155 -197 -203 -209 -9 -2 -31 53 -76 192 l-62 194
28 46 c44 73 61 138 57 224 -2 60 0 77 12 82 33 13 319 16 420 5 319 -37 651
-172 890 -364 24 -20 47 -34 51 -31 4 2 10 0 14 -6 3 -5 1 -10 -4 -10 -6 0
-11 -7 -11 -15 0 -8 -4 -15 -10 -15 -5 0 -10 -5 -10 -11 0 -22 44 22 46 45 0
14 -2 24 -7 23 -8 -2 -9 3 -9 36 0 18 2 19 10 7 7 -11 9 -7 5 15 -9 49 8 120
28 119 9 -1 17 2 17 7 0 5 5 9 11 9 5 0 8 -4 5 -8 -3 -5 1 -9 9 -9 8 0 15 7
15 15 0 9 7 13 20 9 11 -3 22 -1 25 4 3 4 13 5 22 2 12 -5 14 -3 8 7 -6 10 -4
12 10 6 11 -4 25 0 36 10 10 9 25 14 32 11 8 -3 21 0 28 6 10 9 10 8 -1 -6 -7
-10 -19 -16 -25 -13 -7 2 -17 1 -23 -3 -18 -11 15 -51 41 -50 19 1 19 2 3 6
-15 4 -16 7 -5 15 10 7 8 8 -8 3 -14 -4 -23 -2 -23 5 0 6 4 9 8 6 13 -8 52 23
53 42 0 14 2 13 9 -3 6 -14 9 -15 10 -5 1 10 4 9 10 -5 l9 -20 1 20 c2 11 2
24 1 29 -1 5 5 6 13 3 8 -3 17 -3 20 1 4 3 16 7 28 9 12 2 28 9 35 15 10 8 17
8 24 1 8 -8 7 -13 -2 -18 -8 -5 -10 -4 -5 3 4 7 3 12 -3 12 -5 0 -11 -5 -13
-11 -2 -6 -15 -12 -30 -12 -14 -1 -24 -5 -22 -8 6 -10 62 -3 76 9 12 10 19 12
34 12 4 0 1 7 -6 15 -8 10 -9 15 -2 15 6 0 16 -8 21 -17 6 -11 11 -13 11 -5 0
7 4 11 9 7 6 -3 8 -13 6 -23 -3 -19 30 -28 40 -11 3 5 0 6 -8 3 -8 -3 -14 2
-14 11 0 9 6 14 14 11 7 -3 13 1 13 9 0 9 -6 12 -15 9 -8 -4 -15 -1 -15 5 0 9
-5 9 -20 1 -14 -7 -20 -7 -20 0 0 10 21 14 48 11 8 -1 20 3 28 10 8 6 14 8 14
4 0 -4 6 -3 13 3 7 6 26 14 42 17 34 7 58 13 65 15 3 1 9 2 14 1 4 -1 16 4 25
11 14 12 15 11 2 -5 -12 -16 -12 -20 0 -32 16 -16 46 -4 35 14 -4 6 -12 9 -17
5 -5 -3 -6 -10 -3 -16 4 -7 2 -8 -4 -4 -27 17 27 61 85 69 12 2 26 6 29 10 4
4 13 2 20 -4 10 -8 20 -6 40 10 14 11 30 18 35 15 5 -3 9 0 9 5 0 6 5 11 11
11 5 0 7 -6 4 -12 -4 -7 0 -5 9 6 8 10 19 15 25 12 5 -4 13 -1 16 5 4 5 13 8
21 5 8 -3 14 0 14 7 0 7 5 4 11 -6 5 -9 7 -22 4 -27 -3 -6 3 -10 15 -10 20 0
20 1 4 25 -10 16 -12 25 -5 26 26 3 30 4 37 11 4 4 13 3 21 -3 10 -9 13 -8 13
0 0 7 4 10 9 7 5 -4 11 0 14 6 3 10 10 8 26 -6 11 -11 22 -16 22 -13 1 4 3 12
4 17 1 6 3 14 4 20 0 5 18 12 39 15 20 4 54 14 75 23 35 14 38 19 33 46 -2 17
-38 305 -78 639 -40 334 -75 613 -79 619 -4 7 -56 0 -160 -20 -149 -29 -300
-52 -704 -107 -104 -14 -200 -27 -211 -30 -21 -5 -22 -1 -27 128 -5 150 -24
224 -88 347 -137 265 -415 432 -714 429 -55 -1 -120 -5 -144 -10z m235 -401
c113 -41 211 -136 256 -248 19 -45 23 -74 22 -165 0 -98 -3 -116 -27 -169 -22
-47 -30 -57 -44 -51 -41 15 -723 451 -723 461 0 7 24 37 54 67 120 122 304
164 462 105z m-2614 -829 l26 -14 -94 -230 c-52 -126 -126 -307 -165 -402
l-71 -172 -48 24 c-68 34 -143 113 -179 187 -117 241 2 525 256 609 69 23 230
22 275 -2z m4425 -864 c0 -8 -4 -12 -9 -9 -4 3 -8 9 -8 15 0 5 4 9 8 9 5 0 9
-7 9 -15z m-322 -85 c-3 -5 -12 -10 -18 -10 -7 0 -6 4 3 10 19 12 23 12 15 0z"/>
<path d="M35520 13476 c-3 -3 -47 -6 -98 -7 -53 -1 -95 -6 -101 -13 -5 -6 -43
-166 -84 -356 -80 -365 -154 -698 -501 -2273 -119 -537 -216 -989 -216 -1004
0 -27 167 -1170 174 -1189 2 -5 196 -52 430 -104 234 -52 431 -97 436 -100 9
-6 -66 -355 -341 -1595 -58 -262 -85 -358 -136 -494 l-36 -96 88 -595 c48
-327 89 -607 92 -622 4 -23 2 -28 -13 -28 -11 0 -86 -67 -182 -163 l-162 -162
160 -160 160 -160 320 160 320 160 0 100 c0 55 22 395 50 755 27 360 108 1449
180 2420 73 971 134 1772 137 1780 4 10 8 5 13 -15 4 -16 205 -388 447 -825
380 -686 1079 -1948 1966 -3549 196 -352 238 -436 229 -450 -6 -9 -63 -101
-127 -206 -109 -177 -115 -190 -98 -203 31 -23 360 -222 367 -222 6 0 481 395
530 440 18 17 17 24 -30 219 -40 169 -46 204 -34 211 12 7 9 25 -17 107 -64
202 -168 529 -275 863 -60 190 -129 406 -153 480 -23 74 -146 459 -273 855
-127 396 -314 982 -417 1302 l-186 582 111 1762 c61 969 107 1765 103 1769
-86 75 -280 203 -388 257 -331 166 -861 281 -1605 348 -168 16 -829 32 -840
21z"/>
<path d="M34578 13391 l-88 -14 1 -396 c0 -218 2 -391 5 -386 10 26 175 789
172 799 -2 8 -27 8 -90 -3z"/>
<path d="M34481 12564 c0 -11 3 -14 6 -6 3 7 2 16 -1 19 -3 4 -6 -2 -5 -13z"/>
<path d="M20921 11603 c6 -7 18 -13 26 -13 11 0 11 3 1 13 -7 8 -18 14 -25 14
-9 0 -10 -4 -2 -14z"/>
<path d="M20886 11602 c-3 -5 1 -9 9 -9 8 0 12 4 9 9 -3 4 -7 8 -9 8 -2 0 -6
-4 -9 -8z"/>
<path d="M20970 11597 c0 -2 6 -10 14 -16 11 -9 16 -9 22 1 4 7 4 10 -1 6 -4
-4 -14 -3 -22 3 -7 6 -13 9 -13 6z"/>
<path d="M20960 11570 c0 -5 5 -10 11 -10 5 0 7 5 4 10 -3 6 -8 10 -11 10 -2
0 -4 -4 -4 -10z"/>
<path d="M21002 11559 c-12 -11 -27 -17 -34 -13 -7 4 -8 3 -4 -4 4 -7 14 -12
22 -12 8 0 14 -4 14 -8 0 -4 9 -8 20 -8 11 0 20 4 20 8 0 8 -16 12 -32 9 -5 0
-8 4 -8 9 0 6 4 10 9 10 5 0 11 7 15 15 7 20 4 19 -22 -6z"/>
<path d="M20777 11556 c-6 -16 2 -28 14 -20 12 7 11 34 0 34 -5 0 -11 -6 -14
-14z"/>
<path d="M21054 11542 c2 -18 0 -35 -5 -38 -5 -3 -9 -17 -9 -31 0 -24 13 -25
16 -2 1 5 3 12 4 17 1 4 3 18 4 32 1 15 6 24 14 22 8 -1 11 2 7 8 -3 6 -10 8
-15 5 -4 -3 -11 1 -13 7 -3 7 -4 -2 -3 -20z"/>
<path d="M20720 11542 c0 -15 -2 -15 -10 -2 -7 12 -9 11 -8 -5 1 -14 10 -21
30 -22 15 -1 30 2 33 6 3 5 -3 7 -13 4 -12 -3 -19 1 -19 10 0 9 6 13 14 10 7
-3 13 -1 13 4 0 5 -9 9 -20 10 -13 1 -20 -4 -20 -15z"/>
<path d="M21103 11544 c4 -7 0 -14 -8 -18 -17 -6 -20 -32 -6 -40 5 -4 7 4 4
16 -6 23 -6 22 16 -2 12 -14 20 -19 16 -12 -3 6 -2 12 4 12 5 0 9 9 8 20 -1
10 -3 17 -6 15 -2 -3 -11 1 -19 8 -10 8 -13 8 -9 1z m27 -28 c0 -3 -4 -8 -10
-11 -5 -3 -10 -1 -10 4 0 6 5 11 10 11 6 0 10 -2 10 -4z"/>
<path d="M20467 11457 c4 -6 0 -8 -10 -4 -9 3 -19 2 -22 -3 -3 -5 -12 -7 -20
-3 -8 3 -15 1 -15 -5 0 -11 25 -10 36 1 4 3 15 2 26 -4 13 -7 23 -7 32 0 7 6
17 7 21 3 5 -4 5 -1 1 6 -4 7 -12 10 -17 7 -5 -4 -9 -2 -9 3 0 5 -7 9 -15 9
-8 0 -11 -5 -8 -10z"/>
<path d="M20996 11446 c-5 -21 -11 -24 -46 -22 -27 2 -40 -2 -40 -11 0 -7 -7
-13 -15 -13 -8 0 -15 -4 -15 -10 0 -5 8 -7 18 -4 14 5 14 3 -2 -10 -24 -20 -8
-21 18 -1 10 7 15 18 11 24 -6 11 12 16 47 13 10 -1 22 7 28 18 6 12 15 18 19
16 4 -3 8 1 8 9 0 24 -24 17 -31 -9z"/>
<path d="M20530 11440 c0 -5 5 -10 10 -10 6 0 10 5 10 10 0 6 -4 10 -10 10 -5
0 -10 -4 -10 -10z"/>
<path d="M20227 11393 c-3 -5 -1 -17 4 -28 6 -17 7 -16 6 8 -1 28 -3 32 -10
20z"/>
<path d="M20143 11378 c3 -9 1 -19 -6 -22 -9 -3 -9 -5 0 -5 18 -1 23 13 11 29
-8 12 -9 12 -5 -2z"/>
<path d="M20111 11364 c0 -11 3 -14 6 -6 3 7 2 16 -1 19 -3 4 -6 -2 -5 -13z"/>
<path d="M20048 11353 c7 -3 16 -2 19 1 4 3 -2 6 -13 5 -11 0 -14 -3 -6 -6z"/>
<path d="M20729 11343 c0 -5 -2 -19 -5 -32 -3 -18 -1 -22 12 -17 12 5 15 2 10
-11 -5 -15 -4 -15 9 1 10 13 15 15 15 6 0 -7 2 -11 5 -8 3 3 1 16 -4 29 -8 20
-10 21 -10 5 -1 -11 -4 -16 -8 -12 -11 11 -10 30 2 38 6 5 3 8 -7 8 -10 0 -18
-3 -19 -7z"/>
<path d="M20783 11335 c0 -8 4 -12 9 -9 4 3 8 -1 8 -8 0 -9 3 -9 10 2 8 12 10
12 10 1 0 -8 3 -12 6 -8 3 3 1 14 -5 24 -7 12 -10 13 -11 4 0 -10 -3 -11 -13
-2 -10 8 -14 7 -14 -4z"/>
<path d="M20703 11270 c-13 -5 -23 -12 -23 -15 0 -4 5 -3 10 0 6 3 10 -1 10
-10 0 -13 4 -14 22 -4 14 8 18 14 10 17 -6 2 -10 8 -6 13 6 11 6 11 -23 -1z"/>
<path d="M20643 11254 c0 -7 4 -11 8 -8 4 2 12 -4 18 -13 6 -10 11 -13 11 -6
0 6 -5 15 -10 18 -6 4 -8 10 -6 14 3 4 -1 8 -8 8 -7 0 -13 -6 -13 -13z"/>
<path d="M19607 11218 c-15 -5 -25 -14 -21 -19 9 -15 28 -10 42 11 7 11 11 20
10 19 -2 0 -15 -5 -31 -11z"/>
<path d="M20653 11205 c0 -8 4 -12 9 -9 5 3 6 10 3 15 -9 13 -12 11 -12 -6z"/>
<path d="M20588 11172 c3 -10 1 -13 -6 -8 -6 3 -13 2 -16 -3 -4 -5 -2 -12 4
-16 6 -4 7 -12 3 -18 -4 -7 0 -6 10 2 9 7 14 17 11 22 -3 5 -1 9 4 9 5 0 9 6
9 13 0 8 -6 14 -13 14 -7 0 -10 -7 -6 -15z"/>
<path d="M20484 11085 c-1 -14 3 -25 9 -25 6 0 7 3 4 6 -3 4 -2 15 4 25 7 14
6 19 -3 19 -7 0 -14 -11 -14 -25z"/>
<path d="M20410 11015 c-7 -9 -10 -18 -6 -22 3 -3 6 0 6 8 0 11 2 12 9 1 7
-11 9 -11 14 2 8 21 -8 29 -23 11z"/>
<path d="M20379 10963 c-13 -16 -12 -17 4 -4 9 7 17 15 17 17 0 8 -8 3 -21
-13z"/>
<path d="M20176 10935 c4 -8 8 -15 10 -15 2 0 4 7 4 15 0 8 -4 15 -10 15 -5 0
-7 -7 -4 -15z"/>
<path d="M20215 10930 c-3 -5 -1 -10 4 -10 6 0 11 5 11 10 0 6 -2 10 -4 10 -3
0 -8 -4 -11 -10z"/>
<path d="M19396 10918 c3 -4 0 -8 -6 -8 -6 0 -8 -5 -5 -11 5 -6 12 -4 21 8 13
17 14 17 8 -2 -5 -16 -4 -17 5 -5 16 22 13 29 -8 27 -11 0 -17 -5 -15 -9z"/>
<path d="M19373 10877 c3 -8 0 -21 -6 -28 -7 -8 -1 -4 13 8 l26 23 1 -22 c3
-29 19 -43 27 -23 4 11 2 14 -7 9 -9 -6 -9 -4 1 8 15 18 6 27 -34 34 -20 4
-25 1 -21 -9z"/>
<path d="M19860 10862 c-8 -4 -16 -13 -17 -19 -4 -17 0 -16 27 7 23 20 19 25
-10 12z"/>
<path d="M19996 10858 c3 -5 10 -6 15 -3 13 9 11 12 -6 12 -8 0 -12 -4 -9 -9z"/>
<path d="M19885 10840 c-3 -5 -2 -10 4 -10 5 0 13 5 16 10 3 6 2 10 -4 10 -5
0 -13 -4 -16 -10z"/>
<path d="M19353 10803 c0 -15 -6 -29 -12 -31 -13 -4 -4 -22 11 -22 6 0 8 3 5
6 -10 11 13 45 25 38 7 -5 8 -2 3 6 -6 10 -4 12 11 6 12 -5 15 -4 9 2 -5 5
-19 12 -30 16 -16 5 -20 1 -22 -21z"/>
<path d="M19639 10776 c10 -12 8 -15 -11 -18 -23 -4 -23 -4 3 -9 21 -5 25 -2
25 18 0 13 -6 23 -14 23 -11 0 -12 -3 -3 -14z"/>
<path d="M19310 10721 c-7 -13 -7 -22 0 -26 11 -7 11 -8 14 23 3 27 0 28 -14
3z"/>
<path d="M19353 10688 c7 -10 21 -18 32 -17 18 0 18 1 -3 10 -13 5 -21 13 -18
17 3 5 -1 9 -8 9 -11 0 -12 -4 -3 -19z"/>
<path d="M19475 10700 c3 -5 11 -10 16 -10 6 0 7 5 4 10 -3 6 -11 10 -16 10
-6 0 -7 -4 -4 -10z"/>
<path d="M16364 10292 c-6 -4 -16 -17 -23 -29 -13 -26 -36 -32 -27 -7 3 8 2
13 -3 9 -5 -3 -12 1 -14 7 -4 10 -6 10 -6 1 -1 -7 -7 -10 -15 -7 -16 6 -30
-11 -21 -27 5 -7 14 -4 28 8 17 15 19 15 15 2 -10 -26 26 -18 57 14 27 26 32
44 9 29z m-84 -36 c0 -3 -4 -8 -10 -11 -5 -3 -10 -1 -10 4 0 6 5 11 10 11 6 0
10 -2 10 -4z"/>
<path d="M16396 10273 c-11 -11 -6 -21 14 -26 11 -3 22 -1 25 3 7 11 -30 32
-39 23z"/>
<path d="M16215 10240 c-3 -5 1 -10 10 -10 9 0 13 5 10 10 -3 6 -8 10 -10 10
-2 0 -7 -4 -10 -10z"/>
<path d="M16378 10233 c7 -3 16 -2 19 1 4 3 -2 6 -13 5 -11 0 -14 -3 -6 -6z"/>
<path d="M16105 10223 c-31 -8 -42 -23 -17 -23 12 0 25 0 28 1 4 0 11 -5 15
-13 6 -9 9 -9 9 -1 0 6 -5 15 -11 19 -8 4 -7 9 2 15 15 9 7 10 -26 2z"/>
<path d="M16451 10211 c-8 -5 -9 -11 -3 -15 5 -3 12 1 16 9 6 17 6 18 -13 6z"/>
<path d="M16015 10191 c6 -11 4 -13 -9 -8 -9 4 -15 3 -11 -2 3 -5 -1 -11 -7
-14 -8 -2 -9 -8 -4 -13 5 -5 11 -4 13 4 3 6 11 12 19 12 9 0 13 -4 10 -8 -3
-5 1 -9 9 -9 8 0 12 4 9 9 -3 5 0 17 8 26 11 15 11 15 -3 5 -12 -10 -18 -10
-29 0 -10 10 -11 9 -5 -2z"/>
<path d="M16426 10185 c4 -8 11 -15 16 -15 6 0 5 6 -2 15 -7 8 -14 15 -16 15
-2 0 -1 -7 2 -15z"/>
<path d="M16069 10173 c-13 -16 -12 -17 4 -4 9 7 17 15 17 17 0 8 -8 3 -21
-13z"/>
<path d="M15934 10164 c-18 -15 -18 -15 2 -5 12 6 25 7 29 3 5 -4 5 -1 1 6 -9
15 -8 15 -32 -4z"/>
<path d="M16120 10166 c28 -17 50 -21 35 -7 -6 5 -21 12 -35 15 l-25 7 25 -15z"/>
<path d="M16400 10167 c0 -10 8 -17 18 -17 9 0 13 4 7 8 -5 4 -13 11 -17 16
-5 5 -8 2 -8 -7z"/>
<path d="M16480 10176 c0 -2 8 -10 18 -17 15 -13 16 -12 3 4 -13 16 -21 21
-21 13z"/>
<path d="M24638 10153 c7 -3 16 -2 19 1 4 3 -2 6 -13 5 -11 0 -14 -3 -6 -6z"/>
<path d="M24737 10132 c2 -8 6 -25 9 -38 7 -29 24 -32 24 -4 0 11 -4 20 -10
20 -5 0 -6 7 -3 17 4 10 2 14 -4 10 -6 -4 -13 -4 -16 0 -2 5 -2 2 0 -5z"/>
<path d="M15773 10113 c4 -6 1 -14 -5 -16 -10 -4 -10 -6 0 -6 8 -1 10 -6 6
-13 -6 -10 -4 -10 8 0 9 7 20 12 24 11 21 -3 31 2 31 17 0 15 -1 15 -12 1 -11
-15 -14 -15 -35 0 -13 9 -20 12 -17 6z"/>
<path d="M16506 10105 c4 -8 11 -15 16 -15 6 0 5 6 -2 15 -7 8 -14 15 -16 15
-2 0 -1 -7 2 -15z"/>
<path d="M16563 10106 c4 -10 7 -20 7 -22 0 -3 5 -2 10 1 6 3 10 2 10 -4 0 -5
9 -9 19 -8 11 0 17 5 15 9 -3 5 -9 6 -13 4 -4 -3 -19 5 -31 17 -20 18 -23 18
-17 3z"/>
<path d="M24723 10101 c0 -11 5 -18 9 -15 4 3 5 11 1 19 -7 21 -12 19 -10 -4z"/>
<path d="M24789 10118 c-10 -19 -3 -44 12 -45 10 -1 18 1 18 5 -3 21 3 23 19
9 15 -14 19 -15 19 -2 0 8 -4 12 -8 9 -4 -2 -9 2 -12 8 -4 10 -7 11 -18 1 -18
-18 -32 -16 -25 2 4 12 0 23 -5 13z"/>
<path d="M15696 10094 c-8 -22 -8 -24 8 -24 7 0 20 8 27 18 7 9 9 14 5 10 -5
-4 -15 -3 -21 2 -9 8 -14 6 -19 -6z"/>
<path d="M15665 10090 c-4 -6 -11 -8 -16 -5 -5 4 -9 2 -9 -4 0 -5 8 -9 18 -8
10 0 19 7 19 14 0 16 -4 16 -12 3z"/>
<path d="M16480 10087 c0 -10 8 -17 18 -17 9 0 13 4 7 8 -5 4 -13 11 -17 16
-5 5 -8 2 -8 -7z"/>
<path d="M24870 10084 c0 -6 9 -19 20 -29 11 -10 20 -25 20 -34 0 -10 9 -16
25 -16 14 0 25 5 25 12 0 6 -9 9 -20 6 -16 -4 -19 -2 -13 12 4 12 3 16 -5 11
-6 -3 -13 -2 -17 4 -3 5 -1 10 4 10 6 0 11 5 11 12 0 9 -3 9 -12 0 -9 -9 -14
-7 -24 6 -8 9 -14 12 -14 6z"/>
<path d="M15583 10055 c0 -8 4 -15 9 -15 4 0 8 7 8 15 0 8 -4 15 -8 15 -5 0
-9 -7 -9 -15z"/>
<path d="M24936 10056 c3 -9 10 -16 15 -16 5 0 14 -10 19 -22 5 -13 9 -16 9
-8 1 17 -7 30 -32 49 -15 12 -17 12 -11 -3z"/>
<path d="M15533 10053 c-7 -2 -13 -11 -13 -19 0 -11 -4 -12 -19 -4 -28 14 -44
12 -37 -5 3 -8 -2 -19 -11 -24 -12 -6 -5 -8 23 -6 21 1 40 6 42 11 2 5 10 19
18 32 8 12 13 22 12 21 -2 0 -9 -3 -15 -6z m-38 -33 c3 -6 -1 -7 -9 -4 -18 7
-21 14 -7 14 6 0 13 -4 16 -10z"/>
<path d="M16649 10058 c-5 -18 -6 -38 -1 -34 7 8 12 36 6 36 -2 0 -4 -1 -5 -2z"/>
<path d="M15558 10045 c-4 -4 -4 -13 -1 -21 3 -8 0 -14 -6 -14 -6 0 -11 -5
-11 -12 0 -9 3 -9 11 -1 6 6 19 9 28 6 12 -4 13 -3 3 5 -8 5 -13 12 -12 16 3
13 -5 27 -12 21z"/>
<path d="M16673 10037 c0 -8 6 -14 14 -14 9 0 10 4 2 14 -6 7 -12 13 -14 13
-1 0 -2 -6 -2 -13z"/>
<path d="M15425 10020 c-3 -5 -12 -7 -19 -4 -17 6 -31 -12 -16 -21 5 -3 10 0
10 7 0 10 2 10 8 1 6 -9 12 -7 25 7 9 11 13 20 7 20 -5 0 -11 -4 -15 -10z"/>
<path d="M24883 10010 c-1 -11 2 -20 7 -20 4 0 7 7 6 15 -3 23 -12 26 -13 5z"/>
<path d="M16705 10010 c-4 -6 -10 -8 -14 -6 -4 3 -13 0 -21 -5 -13 -9 -13 -10
0 -8 43 4 71 -2 63 -13 -14 -23 -11 -37 5 -31 15 4 15 3 0 -10 -10 -8 -18 -18
-18 -23 0 -4 5 -3 12 4 15 15 31 16 22 0 -4 -7 -3 -8 5 -4 6 4 8 12 5 18 -4 7
-2 8 5 4 6 -4 18 0 27 8 8 9 11 16 5 16 -5 0 -13 -5 -16 -11 -5 -7 -13 -4 -26
7 -10 9 -16 21 -13 26 3 5 -3 12 -15 15 -11 3 -18 9 -15 14 3 5 3 9 0 9 -3 0
-8 -5 -11 -10z"/>
<path d="M15286 9968 c-14 -20 -16 -20 -16 -4 0 15 -3 16 -15 6 -8 -6 -20 -8
-26 -4 -8 5 -9 3 -4 -6 6 -10 4 -12 -8 -7 -9 3 -19 2 -23 -4 -3 -6 -13 -8 -21
-4 -12 4 -13 3 -5 -8 7 -8 9 -17 5 -20 -3 -4 -1 -7 5 -7 6 0 13 8 15 18 4 16
5 16 6 -1 0 -10 6 -15 11 -12 6 4 8 11 5 16 -4 5 1 9 9 9 10 0 13 -6 9 -17 -4
-11 -3 -14 6 -9 7 5 10 14 7 22 -3 7 0 16 6 20 6 4 8 3 5 -3 -4 -6 1 -17 10
-24 9 -8 14 -9 10 -3 -4 6 4 23 18 38 13 14 20 26 15 26 -5 0 -16 -10 -24 -22z"/>
<path d="M24685 9970 c3 -5 11 -10 16 -10 6 0 7 5 4 10 -3 6 -11 10 -16 10 -6
0 -7 -4 -4 -10z"/>
<path d="M15312 9958 c-8 -8 -8 -17 -1 -30 11 -20 30 -25 27 -5 -2 6 3 11 10
10 19 -4 14 15 -6 26 -13 7 -22 7 -30 -1z"/>
<path d="M25144 9958 c3 -15 26 -23 26 -8 0 6 -4 9 -9 6 -5 -4 -12 -1 -14 4
-3 6 -4 5 -3 -2z"/>
<path d="M25121 9944 c0 -11 3 -14 6 -6 3 7 2 16 -1 19 -3 4 -6 -2 -5 -13z"/>
<path d="M15133 9926 c0 -7 6 -13 14 -13 7 0 13 4 13 8 0 4 -6 9 -13 12 -8 3
-14 0 -14 -7z"/>
<path d="M16792 9927 c-8 -9 -9 -16 -3 -19 6 -1 12 -14 13 -28 4 -38 21 -51
33 -26 6 12 21 22 33 24 13 2 22 10 21 20 0 11 -3 12 -6 5 -2 -7 -9 -13 -15
-13 -6 0 -8 7 -4 15 3 8 -3 19 -14 25 -27 15 -34 12 -15 -6 9 -9 13 -19 10
-22 -3 -4 -10 0 -15 8 -9 13 -10 13 -11 0 0 -8 -4 -4 -8 9 -6 21 -8 22 -19 8z
m42 -48 c-3 -5 -10 -7 -15 -3 -5 3 -7 10 -3 15 3 5 10 7 15 3 5 -3 7 -10 3
-15z"/>
<path d="M15076 9922 c-3 -5 1 -9 9 -9 8 0 12 4 9 9 -3 4 -7 8 -9 8 -2 0 -6
-4 -9 -8z"/>
<path d="M14985 9890 c3 -6 0 -13 -8 -16 -7 -2 -14 -11 -14 -18 0 -8 6 -12 13
-9 6 2 15 0 19 -6 8 -14 45 -14 45 -1 0 5 -7 7 -15 4 -8 -3 -20 -2 -26 2 -9 5
-7 10 7 15 16 6 16 8 2 8 -11 1 -15 6 -12 16 4 8 1 15 -6 15 -6 0 -8 -5 -5
-10z"/>
<path d="M14895 9870 c-11 -5 -17 -9 -12 -11 20 -5 28 -7 38 -8 5 0 8 -5 5 -9
-3 -5 1 -9 9 -9 11 0 12 4 4 13 -7 8 -6 14 3 18 7 3 2 3 -11 0 -16 -4 -21 -3
-17 5 8 13 8 13 -19 1z"/>
<path d="M14810 9840 c-12 -7 -10 -9 7 -7 12 0 19 5 17 9 -6 10 -6 10 -24 -2z"/>
<path d="M14785 9823 c4 -15 0 -25 -12 -32 -10 -6 -13 -11 -7 -11 22 0 36 27
24 47 -10 16 -10 16 -5 -4z"/>
<path d="M16571 9821 c-9 -6 -10 -11 -2 -15 6 -4 11 -2 11 4 0 6 10 8 25 4 14
-3 25 -2 25 3 0 12 -41 15 -59 4z"/>
<path d="M16645 9812 c3 -7 5 -16 5 -18 0 -13 18 -1 22 14 4 12 -1 18 -14 18
-11 0 -17 -5 -13 -14z"/>
<path d="M14726 9796 c-6 -19 -8 -19 -19 -5 -11 14 -15 12 -35 -13 -13 -15
-20 -28 -15 -28 12 0 35 16 34 24 -2 16 0 18 13 7 11 -9 17 -8 28 2 7 8 20 16
28 19 10 3 8 6 -7 10 -16 4 -23 0 -27 -16z"/>
<path d="M14665 9800 c-4 -6 -11 -7 -17 -4 -6 4 -8 2 -4 -4 3 -6 2 -13 -4 -17
-5 -3 -10 -11 -10 -17 0 -6 11 1 25 16 14 15 25 29 25 32 0 8 -9 4 -15 -6z"/>
<path d="M16685 9800 c4 -6 11 -8 16 -5 14 9 11 15 -7 15 -8 0 -12 -5 -9 -10z"/>
<path d="M16586 9791 c-17 -6 -17 -8 -4 -14 10 -3 19 0 22 9 3 8 4 14 3 13 -1
0 -11 -4 -21 -8z"/>
<path d="M24770 9788 c0 -4 7 -8 15 -8 8 0 15 4 15 8 0 5 -7 9 -15 9 -8 0 -15
-4 -15 -9z"/>
<path d="M25546 9784 c-7 -19 1 -34 17 -33 9 0 9 2 0 6 -9 3 -10 10 -3 24 6
11 7 19 1 19 -5 0 -12 -7 -15 -16z"/>
<path d="M25575 9780 c-3 -5 -1 -10 4 -10 6 0 11 5 11 10 0 6 -2 10 -4 10 -3
0 -8 -4 -11 -10z"/>
<path d="M25620 9780 c0 -5 5 -10 11 -10 5 0 8 -4 5 -8 -2 -4 6 -8 19 -8 15 0
21 5 18 14 -3 7 -12 11 -19 8 -8 -3 -14 -1 -14 4 0 6 -4 10 -10 10 -5 0 -10
-4 -10 -10z"/>
<path d="M14576 9765 c-3 -8 -1 -15 4 -15 6 0 10 7 10 15 0 8 -2 15 -4 15 -2
0 -6 -7 -10 -15z"/>
<path d="M14782 9773 c-6 -2 -10 -9 -6 -14 8 -14 21 -11 21 6 0 8 -1 15 -1 14
-1 0 -7 -3 -14 -6z"/>
<path d="M24785 9745 c0 -13 3 -21 8 -18 4 2 7 10 7 18 0 8 -3 16 -7 18 -5 3
-8 -5 -8 -18z"/>
<path d="M16350 9740 c0 -5 0 -13 1 -17 0 -4 -8 -10 -18 -14 -11 -4 -4 -6 20
-6 33 2 35 4 20 15 -16 11 -16 14 -3 22 13 8 12 10 -2 10 -10 0 -18 -4 -18
-10z"/>
<path d="M16390 9738 c0 -22 16 -31 34 -21 12 7 11 10 -2 23 -14 13 -15 12 -9
-5 7 -20 7 -20 -8 -1 -13 17 -15 17 -15 4z"/>
<path d="M14441 9729 c0 -9 7 -27 17 -39 l18 -22 0 25 c0 15 -5 23 -12 20 -7
-2 -14 4 -17 14 -4 15 -5 15 -6 2z"/>
<path d="M14387 9712 c-15 -17 -15 -18 10 -20 20 -2 23 1 14 11 -6 8 -8 17 -4
20 3 4 4 7 1 7 -3 0 -12 -8 -21 -18z"/>
<path d="M25791 9713 c3 -21 -2 -24 -18 -12 -16 12 -17 12 -6 -2 7 -9 11 -18
8 -21 -3 -2 11 -4 30 -3 18 0 38 5 42 9 4 5 3 6 -4 2 -7 -4 -13 -3 -13 3 0 6
-9 15 -20 21 -11 6 -20 7 -19 3z m23 -21 c3 -5 -1 -9 -9 -9 -8 0 -12 4 -9 9 3
4 7 8 9 8 2 0 6 -4 9 -8z"/>
<path d="M24780 9695 c7 -9 15 -13 17 -11 7 7 -7 26 -19 26 -6 0 -6 -6 2 -15z"/>
<path d="M14274 9685 c-14 -9 -11 -11 13 -11 16 0 30 5 30 11 0 6 -6 12 -14
12 -8 0 -21 -6 -29 -12z"/>
<path d="M14230 9671 c0 -8 -6 -11 -17 -7 -10 4 -14 4 -10 0 4 -4 -1 -13 -11
-20 -9 -7 -12 -13 -7 -13 17 -1 60 37 52 45 -4 4 -7 2 -7 -5z"/>
<path d="M16240 9659 c0 -5 5 -7 10 -4 6 3 10 8 10 11 0 2 -4 4 -10 4 -5 0
-10 -5 -10 -11z"/>
<path d="M14105 9636 c-13 -10 -15 -15 -6 -16 11 0 11 -3 1 -15 -18 -22 -3
-18 22 5 12 10 25 17 30 14 5 -3 2 -11 -8 -18 -15 -11 -13 -13 13 -13 18 0 30
6 30 13 0 7 -4 11 -8 9 -10 -7 -30 21 -21 31 4 4 0 3 -10 -4 -11 -9 -17 -9
-20 -2 -2 7 -10 5 -23 -4z"/>
<path d="M24777 9624 c6 -15 23 -19 23 -5 0 5 -7 11 -14 14 -10 4 -13 1 -9 -9z"/>
<path d="M25965 9630 c-3 -5 -11 -8 -18 -6 -7 1 -8 1 -4 -2 4 -2 1 -9 -8 -16
-13 -9 -10 -11 15 -13 16 -1 32 2 35 6 3 5 -5 7 -17 3 -23 -5 -23 -5 -4 16 11
12 16 22 13 22 -3 0 -8 -4 -12 -10z"/>
<path d="M14055 9620 c-4 -6 -11 -8 -16 -5 -5 4 -9 2 -9 -4 0 -5 -11 -8 -24
-7 -14 2 -30 -1 -38 -5 -8 -6 5 -8 34 -6 27 1 48 7 48 12 0 6 5 3 11 -5 9 -13
10 -13 6 2 -3 9 -1 19 6 22 9 3 9 5 0 5 -6 1 -15 -4 -18 -9z"/>
<path d="M14205 9610 c-3 -5 -4 -10 -1 -10 2 0 11 -3 20 -6 11 -4 16 -1 16 10
0 18 -25 22 -35 6z"/>
<path d="M15870 9580 c-11 -7 -11 -10 -2 -10 8 0 10 -5 6 -12 -4 -7 2 -5 13 5
11 9 22 17 25 17 4 0 5 -8 3 -17 -1 -10 -8 -17 -14 -15 -6 1 -11 -2 -11 -8 0
-14 11 -12 34 5 11 8 14 15 7 15 -7 0 -9 5 -6 10 5 8 12 7 23 -2 15 -11 15
-11 5 2 -14 18 -62 24 -83 10z"/>
<path d="M13898 9561 c5 -13 3 -14 -10 -3 -13 10 -17 10 -21 -2 -4 -9 -1 -18
5 -22 7 -5 8 -3 4 5 -5 8 -3 12 5 10 26 -3 36 1 36 14 0 8 -6 14 -13 14 -7 0
-10 -7 -6 -16z"/>
<path d="M26193 9555 c0 -8 5 -15 10 -15 5 0 5 -6 -1 -13 -8 -10 -6 -13 9 -14
11 -1 17 2 14 8 -4 5 -1 9 4 9 6 0 11 4 11 10 0 5 -7 7 -15 4 -9 -4 -15 0 -15
10 0 9 -4 16 -8 16 -5 0 -9 -7 -9 -15z"/>
<path d="M13824 9552 c-17 -12 -10 -37 11 -40 17 -3 17 -1 5 7 -12 9 -13 12
-1 20 7 5 9 11 4 14 -5 3 -13 3 -19 -1z"/>
<path d="M13775 9540 c-3 -6 1 -7 9 -4 18 7 21 14 7 14 -6 0 -13 -4 -16 -10z"/>
<path d="M13890 9525 c-14 -8 -20 -14 -14 -15 5 0 19 7 30 15 24 18 16 19 -16
0z"/>
<path d="M26160 9531 c0 -5 5 -13 10 -16 6 -3 10 -2 10 4 0 5 -4 13 -10 16 -5
3 -10 2 -10 -4z"/>
<path d="M26245 9520 c-3 -5 -1 -10 4 -10 6 0 11 5 11 10 0 6 -2 10 -4 10 -3
0 -8 -4 -11 -10z"/>
<path d="M26363 9497 c3 -9 1 -17 -6 -20 -8 -2 -8 -5 1 -11 7 -4 12 -3 12 3 0
6 7 8 15 5 23 -9 18 9 -6 25 -19 11 -21 11 -16 -2z"/>
<path d="M13910 9479 c0 -5 5 -7 10 -4 6 3 10 8 10 11 0 2 -4 4 -10 4 -5 0
-10 -5 -10 -11z"/>
<path d="M26335 9450 c10 -11 20 -18 23 -16 5 6 -23 36 -34 36 -4 0 1 -9 11
-20z"/>
<path d="M26378 9433 c7 -3 16 -2 19 1 4 3 -2 6 -13 5 -11 0 -14 -3 -6 -6z"/>
<path d="M14150 9416 c0 -2 7 -9 15 -16 9 -7 15 -8 15 -2 0 5 -7 12 -15 16 -8
3 -15 4 -15 2z"/>
<path d="M14108 9403 c7 -3 16 -2 19 1 4 3 -2 6 -13 5 -11 0 -14 -3 -6 -6z"/>
<path d="M14195 9401 c3 -6 14 -9 25 -8 23 2 17 10 -11 14 -11 2 -18 -1 -14
-6z"/>
<path d="M26514 9402 c4 -6 -2 -16 -11 -22 -16 -10 -16 -11 2 -5 11 4 29 8 39
11 11 2 24 9 30 15 8 9 6 9 -9 1 -13 -7 -26 -7 -38 0 -13 7 -17 7 -13 0z"/>
<path d="M14339 9340 c-7 -5 -22 -7 -33 -4 -12 4 -16 2 -12 -5 8 -12 56 -11
56 2 0 4 4 6 10 2 5 -3 7 -13 4 -23 -4 -10 -2 -13 3 -7 4 6 12 13 16 17 14 11
-27 28 -44 18z"/>
<path d="M26316 9325 c-5 -13 -10 -14 -27 -4 -13 7 -19 7 -15 1 4 -6 -2 -16
-11 -22 -16 -10 -16 -11 2 -5 11 4 26 8 32 8 16 0 50 37 36 37 -6 0 -14 -7
-17 -15z"/>
<path d="M14416 9315 c-10 -8 -24 -12 -30 -8 -8 4 -8 3 0 -6 7 -8 18 -9 35 -2
13 5 20 10 14 11 -5 0 -3 5 5 10 8 5 11 10 5 10 -5 -1 -19 -7 -29 -15z"/>
<path d="M14505 9261 c-6 -10 33 -36 42 -28 2 3 -5 8 -16 12 -12 3 -19 11 -16
16 4 5 4 9 1 9 -3 0 -7 -4 -11 -9z"/>
<path d="M24823 9263 c-17 -6 -16 -20 1 -26 11 -4 13 -1 9 10 -5 12 -3 14 7 8
9 -5 11 -4 6 3 -4 7 -8 12 -9 11 -1 0 -8 -3 -14 -6z"/>
<path d="M14580 9248 c0 -6 3 -8 7 -5 3 4 11 3 17 -3 7 -5 17 -5 26 0 8 6 11
10 5 11 -5 0 -20 2 -32 5 -13 2 -23 -1 -23 -8z"/>
<path d="M14581 9227 c2 -1 13 -9 24 -17 19 -14 19 -14 6 3 -7 9 -18 17 -24
17 -6 0 -8 -1 -6 -3z"/>
<path d="M24848 9210 c-17 -16 -17 -17 0 -15 18 1 26 10 20 24 -2 4 -11 1 -20
-9z"/>
<path d="M14817 9179 c7 -7 15 -10 18 -7 3 3 -2 9 -12 12 -14 6 -15 5 -6 -5z"/>
<path d="M24811 9133 c2 -59 3 -61 25 -53 15 6 24 5 27 -3 7 -19 -3 -38 -16
-31 -8 5 -8 2 0 -6 16 -18 22 -11 27 29 3 31 2 33 -23 28 -26 -6 -27 -4 -30
41 -1 26 -4 49 -7 52 -3 2 -4 -23 -3 -57z"/>
<path d="M14786 9151 c-4 -5 -2 -12 4 -16 5 -3 10 -3 10 1 0 3 6 1 13 -5 10
-8 14 -7 14 4 0 8 -3 13 -5 10 -3 -3 -11 0 -18 6 -8 6 -14 6 -18 0z"/>
<path d="M14854 9145 c-19 -15 -19 -15 0 -30 22 -17 40 -20 31 -5 -3 6 -13 10
-21 10 -19 0 -18 10 4 26 9 7 14 14 11 14 -3 0 -14 -7 -25 -15z"/>
<path d="M14920 9090 c0 -5 4 -10 9 -10 6 0 13 5 16 10 3 6 -1 10 -9 10 -9 0
-16 -4 -16 -10z"/>
<path d="M15016 9084 c-9 -8 -16 -18 -16 -21 0 -4 3 -3 7 0 3 4 18 -3 32 -15
l26 -23 -22 26 c-18 19 -20 28 -11 37 7 7 9 12 6 12 -4 0 -14 -7 -22 -16z"/>
<path d="M14967 9069 c7 -7 15 -10 18 -7 3 3 -2 9 -12 12 -14 6 -15 5 -6 -5z"/>
<path d="M24807 9053 c-10 -9 -9 -23 2 -23 5 0 11 7 15 15 5 15 -5 20 -17 8z"/>
<path d="M15187 9023 c9 -3 10 -10 3 -24 -13 -23 2 -25 21 -3 10 13 10 17 -2
25 -8 5 -18 8 -24 8 -5 0 -4 -3 2 -6z"/>
<path d="M15264 9019 c-3 -6 -2 -15 3 -20 5 -5 9 -1 9 11 0 23 -2 24 -12 9z"/>
<path d="M25300 8984 c-17 -9 -20 -14 -9 -14 9 0 22 7 29 15 15 18 13 18 -20
-1z"/>
<path d="M15250 8960 c8 -5 20 -10 25 -10 6 0 3 5 -5 10 -8 5 -19 10 -25 10
-5 0 -3 -5 5 -10z"/>
<path d="M15360 8939 c0 -5 5 -7 10 -4 6 3 10 8 10 11 0 2 -4 4 -10 4 -5 0
-10 -5 -10 -11z"/>
<path d="M15480 8929 c0 -5 5 -7 10 -4 6 3 10 8 10 11 0 2 -4 4 -10 4 -5 0
-10 -5 -10 -11z"/>
<path d="M25116 8924 c-11 -8 -16 -14 -10 -14 13 0 39 18 34 24 -3 2 -14 -2
-24 -10z"/>
<path d="M15506 8913 c-6 -14 -5 -15 5 -6 7 7 10 15 7 18 -3 3 -9 -2 -12 -12z"/>
<path d="M15385 8910 c3 -5 8 -10 11 -10 2 0 4 5 4 10 0 6 -5 10 -11 10 -5 0
-7 -4 -4 -10z"/>
<path d="M15440 8892 c0 -5 7 -9 15 -9 8 0 15 4 15 9 0 4 -7 8 -15 8 -8 0 -15
-4 -15 -8z"/>
<path d="M15496 8882 c-3 -5 1 -9 9 -9 8 0 12 4 9 9 -3 4 -7 8 -9 8 -2 0 -6
-4 -9 -8z"/>
<path d="M24876 8844 c-11 -8 -16 -14 -10 -14 13 0 39 18 34 24 -3 2 -14 -2
-24 -10z"/>
<path d="M15558 8843 c7 -3 16 -2 19 1 4 3 -2 6 -13 5 -11 0 -14 -3 -6 -6z"/>
<path d="M24780 8816 c0 -9 7 -12 21 -9 16 4 17 8 7 14 -19 13 -28 11 -28 -5z"/>
<path d="M16579 8518 c-6 -21 -5 -37 2 -32 5 3 9 0 9 -6 0 -7 5 -6 14 2 17 16
11 29 -11 21 -11 -4 -14 -3 -9 5 4 7 5 12 2 12 -3 0 -6 -1 -7 -2z"/>
<path d="M16548 8494 c-10 -10 8 -40 29 -48 15 -6 16 -5 1 11 -8 10 -17 24
-19 31 -3 7 -8 10 -11 6z"/>
<path d="M16520 8481 c0 -6 4 -13 10 -16 6 -3 7 1 4 9 -7 18 -14 21 -14 7z"/>
<path d="M16640 8455 c7 -9 15 -13 18 -11 2 3 14 0 26 -6 19 -10 20 -10 7 6
-8 9 -20 15 -28 12 -7 -3 -13 -1 -13 4 0 6 -5 10 -11 10 -8 0 -7 -5 1 -15z"/>
<path d="M16600 8436 c0 -2 9 -6 20 -9 11 -3 18 -1 14 4 -5 9 -34 13 -34 5z"/>
<path d="M16972 8388 c-7 -7 -12 -17 -12 -22 0 -6 4 -5 9 3 8 13 12 13 28 0
16 -12 17 -12 6 2 -7 9 -10 19 -6 22 3 4 2 7 -3 7 -6 0 -15 -5 -22 -12z"/>
<path d="M16880 8387 c0 -2 11 -13 24 -24 20 -18 25 -19 30 -7 3 8 2 13 -3 9
-5 -3 -16 2 -24 10 -14 14 -27 19 -27 12z"/>
<path d="M16855 8372 c-19 -13 -15 -30 5 -25 21 5 26 18 12 27 -4 2 -12 2 -17
-2z"/>
<path d="M16880 8340 c-8 -5 -10 -10 -5 -10 6 0 17 5 25 10 8 5 11 10 5 10 -5
0 -17 -5 -25 -10z"/>
<path d="M16954 8316 c-9 -10 -5 -15 19 -24 17 -6 32 -10 35 -8 2 2 -6 7 -17
11 -12 3 -21 11 -21 17 0 5 7 7 16 4 8 -3 12 -2 9 4 -8 14 -28 12 -41 -4z"/>
<path d="M26875 7375 l-230 -91 -3 -900 c-2 -785 0 -905 13 -944 14 -40 14
-46 0 -56 -12 -9 -15 -45 -17 -189 l-3 -179 -93 -40 c-50 -22 -91 -44 -90 -47
2 -4 65 -55 141 -113 l138 -106 307 207 c169 113 308 207 310 208 1 2 -10 98
-25 215 -25 193 -26 213 -11 224 14 10 10 60 -42 516 -32 278 -79 694 -105
925 -26 231 -50 429 -53 440 -7 20 -19 16 -237 -70z"/>
<path d="M19886 7282 c-2 -4 9 -8 25 -9 15 -1 30 1 33 5 2 4 -9 8 -25 9 -15 1
-30 -1 -33 -5z"/>
<path d="M19795 7250 c-3 -6 1 -7 9 -4 18 7 21 14 7 14 -6 0 -13 -4 -16 -10z"/>
<path d="M19831 7234 c0 -11 3 -14 6 -6 3 7 2 16 -1 19 -3 4 -6 -2 -5 -13z"/>
<path d="M19810 7200 c0 -5 5 -10 11 -10 5 0 7 5 4 10 -3 6 -8 10 -11 10 -2 0
-4 -4 -4 -10z"/>
<path d="M19870 7176 c6 -5 22 -5 42 1 l33 11 -42 -2 c-25 0 -38 -5 -33 -10z"/>
<path d="M31422 6140 c-117 -26 -217 -51 -221 -56 -5 -5 -24 -72 -44 -149
l-35 -140 34 -280 c18 -154 34 -283 34 -287 0 -5 85 -8 189 -8 l189 0 6 28 c3
15 35 201 71 414 l66 388 -21 70 c-16 52 -25 70 -38 69 -9 0 -113 -22 -230
-49z"/>
<path d="M29055 5259 c-165 -88 -304 -164 -309 -169 -9 -9 32 -269 44 -283 6
-7 1050 116 1086 127 16 6 -37 407 -56 417 -12 6 -439 70 -460 69 -3 0 -140
-73 -305 -161z"/>
</g>
</svg>
