<svg width="536" height="43" viewBox="0 0 536 43" fill="none" xmlns="http://www.w3.org/2000/svg">
<path d="M0.78125 23.4062C0.78125 22.7396 0.84375 21.8333 0.96875 20.6875C1.11458 19.5417 1.32292 18.3125 1.59375 17C1.88542 15.6875 2.23958 14.3646 2.65625 13.0312C3.07292 11.6771 3.5625 10.4583 4.125 9.375C4.70833 8.29167 5.36458 7.40625 6.09375 6.71875C6.84375 6.03125 7.66667 5.6875 8.5625 5.6875C9.08333 5.6875 9.52083 5.78125 9.875 5.96875C10.25 6.15625 10.5521 6.41667 10.7812 6.75C11.0312 7.0625 11.2083 7.42708 11.3125 7.84375C11.4375 8.23958 11.5 8.67708 11.5 9.15625C11.125 9.15625 10.8229 9.0625 10.5938 8.875C10.3646 8.66667 10.1562 8.44792 9.96875 8.21875C9.78125 7.98958 9.58333 7.78125 9.375 7.59375C9.1875 7.38542 8.92708 7.28125 8.59375 7.28125C7.92708 7.28125 7.3125 7.60417 6.75 8.25C6.1875 8.875 5.67708 9.67708 5.21875 10.6562C4.76042 11.6354 4.35417 12.7292 4 13.9375C3.64583 15.125 3.34375 16.2917 3.09375 17.4375C2.86458 18.5625 2.6875 19.5938 2.5625 20.5312C2.4375 21.4479 2.375 22.1354 2.375 22.5938C2.375 23.1979 2.40625 23.7917 2.46875 24.375C2.53125 24.9375 2.66667 25.4479 2.875 25.9062C3.08333 26.3646 3.38542 26.7396 3.78125 27.0312C4.17708 27.3021 4.73958 27.4375 5.46875 27.4375C6.30208 27.4375 7.125 27.1667 7.9375 26.625C8.77083 26.0833 9.54167 25.4271 10.25 24.6562C10.9583 23.8646 11.5729 23.0312 12.0938 22.1562C12.6146 21.2604 12.9896 20.4792 13.2188 19.8125C13.2604 19.7917 13.3542 19.7812 13.5 19.7812C13.6458 19.7604 13.7396 19.75 13.7812 19.75C14.0312 19.75 14.2604 19.7812 14.4688 19.8438C14.6979 19.8854 14.8125 20.0729 14.8125 20.4062C14.6875 21.0729 14.3958 21.7812 13.9375 22.5312C13.4792 23.2604 12.9375 23.9792 12.3125 24.6875C11.6875 25.3958 11 26.0521 10.25 26.6562C9.5 27.2604 8.77083 27.7708 8.0625 28.1875C7.35417 28.6042 6.69792 28.8854 6.09375 29.0312C5.48958 29.1979 5 29.1875 4.625 29C3.9375 29 3.34375 28.8125 2.84375 28.4375C2.36458 28.0417 1.96875 27.5625 1.65625 27C1.36458 26.4375 1.14583 25.8333 1 25.1875C0.854167 24.5417 0.78125 23.9479 0.78125 23.4062ZM17.0625 27.4062C17.2083 26.4479 17.3021 25.25 17.3438 23.8125C17.4062 22.375 17.4271 20.8438 17.4062 19.2188C17.4062 17.5938 17.375 15.9167 17.3125 14.1875C17.25 12.4583 17.1667 10.8229 17.0625 9.28125C16.9583 7.71875 16.8333 6.32292 16.6875 5.09375C16.5625 3.86458 16.4271 2.89583 16.2812 2.1875C16.4688 2.0625 16.625 1.96875 16.75 1.90625C16.8958 1.82292 17.0625 1.78125 17.25 1.78125C17.3958 1.78125 17.5208 1.8125 17.625 1.875C17.7292 1.91667 17.8125 2.02083 17.875 2.1875C18.2917 6.27083 18.5729 10.3854 18.7188 14.5312C18.8854 18.6771 19.0104 22.8021 19.0938 26.9062C19.0938 27.0938 19.0938 27.3542 19.0938 27.6875C19.0938 28 19.0833 28.1667 19.0625 28.1875C18.7708 28.3333 18.5104 28.4062 18.2812 28.4062C18.0521 28.3854 17.8438 28.3229 17.6562 28.2188C17.4688 28.0938 17.3229 27.9583 17.2188 27.8125C17.1146 27.6667 17.0625 27.5312 17.0625 27.4062ZM21.3125 28.375C21.3125 27.0208 21.2812 25.5938 21.2188 24.0938C21.1771 22.5938 21.125 21.0833 21.0625 19.5625C21.0208 18.0208 21.0104 16.5104 21.0312 15.0312C21.0521 13.5521 21.1458 12.1667 21.3125 10.875C21.3542 10.8542 21.4479 10.8438 21.5938 10.8438C21.7604 10.8229 21.875 10.8125 21.9375 10.8125C22.2292 10.8125 22.4583 10.8646 22.625 10.9688C22.8125 11.0521 22.9062 11.25 22.9062 11.5625C22.9062 12.7917 22.8958 14.1354 22.875 15.5938C22.875 17.0312 22.8646 18.5 22.8438 20C22.8438 21.4792 22.8438 22.9479 22.8438 24.4062C22.8438 25.8646 22.8646 27.1875 22.9062 28.375C22.9271 28.7292 22.8542 28.9583 22.6875 29.0625C22.5417 29.1875 22.3542 29.25 22.125 29.25C21.875 29.25 21.6667 29.1875 21.5 29.0625C21.3333 28.9583 21.2708 28.7292 21.3125 28.375ZM20.625 6C20.625 5.75 20.7083 5.58333 20.875 5.5C21.0417 5.41667 21.2292 5.375 21.4375 5.375C21.8542 5.375 22.1146 5.51042 22.2188 5.78125C22.3229 6.05208 22.375 6.36458 22.375 6.71875C22.25 6.94792 22.0938 7.11458 21.9062 7.21875C21.7188 7.30208 21.5208 7.32292 21.3125 7.28125C21.125 7.21875 20.9583 7.08333 20.8125 6.875C20.6875 6.66667 20.625 6.375 20.625 6ZM25.0625 21.8125C25.125 21.0625 25.1875 20.25 25.25 19.375C25.3125 18.4792 25.4062 17.5938 25.5312 16.7188C25.6771 15.8438 25.8542 15.0104 26.0625 14.2188C26.2917 13.4271 26.5833 12.7292 26.9375 12.125C27.3125 11.5 27.7708 11.0104 28.3125 10.6562C28.8542 10.2812 29.5104 10.1042 30.2812 10.125C30.8021 10.125 31.1979 10.3438 31.4688 10.7812C31.7604 11.2188 31.9583 11.75 32.0625 12.375C32.1875 13 32.25 13.6458 32.25 14.3125C32.2708 14.9583 32.2812 15.4896 32.2812 15.9062C31.8646 15.9062 31.5208 15.7292 31.25 15.375C30.9792 15 30.7708 14.5729 30.625 14.0938C30.4792 13.6146 30.375 13.1458 30.3125 12.6875L30.2188 11.7812C30.1979 11.7812 30.1562 11.7812 30.0938 11.7812C30.0521 11.7604 30.0208 11.75 30 11.75C29.6458 11.75 29.3125 11.9479 29 12.3438C28.7083 12.7396 28.4271 13.25 28.1562 13.875C27.9062 14.4792 27.6875 15.1667 27.5 15.9375C27.3125 16.6875 27.1562 17.4271 27.0312 18.1562C26.9062 18.8854 26.8021 19.5625 26.7188 20.1875C26.6562 20.7917 26.625 21.2604 26.625 21.5938C26.5833 22.1354 26.5833 22.7292 26.625 23.375C26.6667 24.0208 26.7917 24.625 27 25.1875C27.2083 25.75 27.5 26.2396 27.875 26.6562C28.25 27.0521 28.75 27.3229 29.375 27.4688C30.1458 27.4688 30.7708 27.3646 31.25 27.1562C31.7292 26.9479 32.1146 26.6667 32.4062 26.3125C32.7188 25.9583 32.9583 25.5625 33.125 25.125C33.2917 24.6875 33.4479 24.2396 33.5938 23.7812C33.7604 23.3021 33.9271 22.8333 34.0938 22.375C34.2604 21.9167 34.5 21.4896 34.8125 21.0938C35.0625 21.0312 35.2396 21.0417 35.3438 21.125C35.4688 21.1875 35.5521 21.2812 35.5938 21.4062C35.6354 21.5312 35.6562 21.6771 35.6562 21.8438V22.1875C35.6562 23.0625 35.5104 23.9062 35.2188 24.7188C34.9271 25.5312 34.5 26.2604 33.9375 26.9062C33.375 27.5312 32.6979 28.0417 31.9062 28.4375C31.1354 28.8125 30.25 29 29.25 29C28.4167 29 27.7188 28.7396 27.1562 28.2188C26.6146 27.6771 26.1875 27.0312 25.875 26.2812C25.5833 25.5312 25.375 24.75 25.25 23.9375C25.125 23.1042 25.0625 22.3958 25.0625 21.8125ZM38.4688 5C38.9062 4.58333 39.25 4.41667 39.5 4.5C39.7708 4.58333 39.9688 4.86458 40.0938 5.34375C40.2188 5.82292 40.2917 6.44792 40.3125 7.21875C40.3333 7.98958 40.3229 8.86458 40.2812 9.84375C40.2604 10.8021 40.2083 11.8229 40.125 12.9062C40.0417 13.9688 39.9688 15.0208 39.9062 16.0625C39.8438 17.0833 39.8021 18.0625 39.7812 19C39.7604 19.9375 39.7917 20.75 39.875 21.4375H39.9688C40.0104 21.4375 40.0417 21.4271 40.0625 21.4062C41.1458 20.3229 42.1146 19.1771 42.9688 17.9688C43.8229 16.7604 44.5938 15.625 45.2812 14.5625C45.9688 13.4792 46.5729 12.5417 47.0938 11.75C47.6354 10.9583 48.1354 10.4167 48.5938 10.125C48.9062 10.125 49.1667 10.1771 49.375 10.2812C49.6042 10.3854 49.7188 10.625 49.7188 11C49.7188 11.0417 49.7083 11.1146 49.6875 11.2188C49.6875 11.3021 49.6875 11.3646 49.6875 11.4062C49.1667 12.4688 48.5938 13.5417 47.9688 14.625C47.3438 15.6875 46.6667 16.7188 45.9375 17.7188C45.2083 18.7188 44.4167 19.6667 43.5625 20.5625C42.7292 21.4583 41.8229 22.2708 40.8438 23C40.8438 23.0208 40.8333 23.0625 40.8125 23.125C40.8125 23.1667 40.8125 23.1979 40.8125 23.2188C40.8125 23.4271 40.9792 23.6562 41.3125 23.9062C41.6667 24.1562 42.1042 24.3958 42.625 24.625C43.1667 24.8542 43.7604 25.0833 44.4062 25.3125C45.0729 25.5417 45.7188 25.7396 46.3438 25.9062C46.9896 26.0729 47.5833 26.2083 48.125 26.3125C48.6875 26.4167 49.125 26.4688 49.4375 26.4688C49.4375 26.5521 49.4375 26.7083 49.4375 26.9375C49.4583 27.1667 49.4479 27.4062 49.4062 27.6562C49.3646 27.9062 49.2917 28.1354 49.1875 28.3438C49.0833 28.5312 48.9167 28.625 48.6875 28.625H48.5625C48.5208 28.625 48.4896 28.6146 48.4688 28.5938L39.5312 25C39.5104 26.2292 39.4271 27.2292 39.2812 28C39.1354 28.75 38.9583 29.3021 38.75 29.6562C38.5625 30.0312 38.3542 30.2083 38.125 30.1875C37.9167 30.1667 37.7292 30 37.5625 29.6875L38.4688 5ZM66.5312 15.6562C66.3229 15.7604 66.125 15.875 65.9375 16C65.7708 16.1042 65.6042 16.2083 65.4375 16.3125C65.2708 16.3958 65.1042 16.4583 64.9375 16.5C64.7708 16.5417 64.5938 16.5417 64.4062 16.5C64.2812 16.5 64.1771 16.4271 64.0938 16.2812C64.0104 16.1146 63.9479 15.9375 63.9062 15.75C63.8438 15.5417 63.8021 15.3438 63.7812 15.1562C63.7604 14.9479 63.7604 14.7917 63.7812 14.6875L66.7812 12.9688L66.9688 4.96875C67.0104 4.69792 67.1771 4.59375 67.4688 4.65625C67.7604 4.69792 68.0625 4.76042 68.375 4.84375C68.4167 4.84375 68.4792 4.86458 68.5625 4.90625C68.6667 4.92708 68.7396 4.94792 68.7812 4.96875C68.7396 5.53125 68.6875 6.14583 68.625 6.8125C68.5833 7.45833 68.5417 8.11458 68.5 8.78125C68.4583 9.42708 68.4271 10.0625 68.4062 10.6875C68.4062 11.3125 68.4375 11.875 68.5 12.375L73.1875 11.0625C73.2708 11.0417 73.3333 11.1042 73.375 11.25C73.4375 11.375 73.4896 11.5312 73.5312 11.7188C73.5938 11.9062 73.6354 12.0938 73.6562 12.2812C73.6771 12.4688 73.6875 12.5625 73.6875 12.5625L68.375 14.8125C68.375 15 68.3854 15.4479 68.4062 16.1562C68.4479 16.8646 68.4896 17.7083 68.5312 18.6875C68.5729 19.6458 68.6146 20.6875 68.6562 21.8125C68.6979 22.9167 68.7396 23.9479 68.7812 24.9062C68.8229 25.8646 68.8542 26.7083 68.875 27.4375C68.8958 28.1458 68.9062 28.5938 68.9062 28.7812C68.8646 29.4062 68.6771 29.7188 68.3438 29.7188C68.0312 29.7188 67.6875 29.5625 67.3125 29.25L66.5312 15.6562ZM85.5 15.3438C84.7292 15.0521 83.9896 15.1667 83.2812 15.6875C82.5729 16.2083 81.8958 16.9479 81.25 17.9062C80.6042 18.8438 79.9896 19.9167 79.4062 21.125C78.8229 22.3333 78.2812 23.4792 77.7812 24.5625C77.2812 25.6458 76.8229 26.5729 76.4062 27.3438C76.0104 28.1146 75.6458 28.5417 75.3125 28.625C75.0625 28.625 74.8646 28.5833 74.7188 28.5C74.5938 28.3958 74.5312 28.1562 74.5312 27.7812V5.8125C74.5312 5.625 74.6042 5.51042 74.75 5.46875C74.9167 5.42708 75.0938 5.41667 75.2812 5.4375C75.4688 5.45833 75.6458 5.51042 75.8125 5.59375C75.9792 5.65625 76.0833 5.72917 76.125 5.8125L76.5312 23.4062C76.7604 23.0312 76.9688 22.5104 77.1562 21.8438C77.3646 21.1562 77.6042 20.4271 77.875 19.6562C78.1458 18.8646 78.4583 18.0833 78.8125 17.3125C79.1875 16.5208 79.6458 15.8125 80.1875 15.1875C80.7292 14.5625 81.3854 14.0833 82.1562 13.75C82.9479 13.3958 83.875 13.2708 84.9375 13.375C85.6458 13.375 86.2188 13.6042 86.6562 14.0625C87.0938 14.5 87.3229 15.0833 87.3438 15.8125L87.6562 28.2812C87.6562 28.3646 87.6354 28.4896 87.5938 28.6562C87.5729 28.8021 87.4896 28.9271 87.3438 29.0312C87.2188 29.1562 87.0312 29.2292 86.7812 29.25C86.5521 29.2917 86.25 29.2396 85.875 29.0938L85.5 15.3438ZM90.125 22.25C90.0208 22.2708 89.8646 22.3021 89.6562 22.3438C89.4479 22.3854 89.2292 22.3958 89 22.375C88.7708 22.3542 88.5729 22.2917 88.4062 22.1875C88.2188 22.0833 88.125 21.9062 88.125 21.6562C88.125 21.5104 88.1562 21.4062 88.2188 21.3438C88.2812 21.2812 88.3854 21.1875 88.5312 21.0625C88.9896 20.6875 89.375 20.2083 89.6875 19.625C90.0208 19.0208 90.3229 18.3854 90.5938 17.7188C90.8646 17.0312 91.1458 16.3542 91.4375 15.6875C91.75 15 92.1042 14.3854 92.5 13.8438C92.8958 13.3021 93.3854 12.8646 93.9688 12.5312C94.5521 12.1979 95.2708 12.0417 96.125 12.0625C96.4792 12.0625 96.875 12.1458 97.3125 12.3125C97.75 12.4792 98.1562 12.7083 98.5312 13C98.9062 13.2708 99.2188 13.6042 99.4688 14C99.7188 14.3958 99.8438 14.8333 99.8438 15.3125C99.9479 15.4792 99.8438 15.7188 99.5312 16.0312C99.2396 16.3438 98.8333 16.6875 98.3125 17.0625C97.7917 17.4167 97.1979 17.7917 96.5312 18.1875C95.8854 18.5625 95.2604 18.9167 94.6562 19.25C94.0521 19.5833 93.5208 19.875 93.0625 20.125C92.6042 20.375 92.3021 20.5625 92.1562 20.6875C92.0521 20.8958 91.9688 21.1354 91.9062 21.4062C91.8438 21.6771 91.7917 21.9375 91.75 22.1875C91.7292 22.4167 91.7083 22.6354 91.6875 22.8438C91.6875 23.0312 91.6875 23.1771 91.6875 23.2812C91.6875 23.6771 91.6667 24.1146 91.625 24.5938C91.6042 25.0729 91.625 25.5312 91.6875 25.9688C91.7708 26.3854 91.9479 26.7396 92.2188 27.0312C92.4896 27.3021 92.9479 27.4375 93.5938 27.4375C94.2812 27.4375 94.9271 27.2708 95.5312 26.9375C96.1354 26.5833 96.6979 26.1562 97.2188 25.6562C97.7396 25.1562 98.2083 24.6146 98.625 24.0312C99.0625 23.4479 99.4479 22.9062 99.7812 22.4062C100.135 21.8854 100.448 21.4583 100.719 21.125C100.99 20.7917 101.219 20.625 101.406 20.625C101.615 20.625 101.833 20.6667 102.062 20.75C102.312 20.8125 102.438 20.9792 102.438 21.25C102.438 21.625 102.281 22.0729 101.969 22.5938C101.677 23.1146 101.281 23.6667 100.781 24.25C100.302 24.8333 99.7396 25.4167 99.0938 26C98.4688 26.5625 97.8333 27.0729 97.1875 27.5312C96.5417 27.9688 95.9062 28.3333 95.2812 28.625C94.6562 28.8958 94.1042 29.0312 93.625 29.0312C92.6875 29.0312 91.9792 28.8021 91.5 28.3438C91.0208 27.8854 90.6771 27.3125 90.4688 26.625C90.2812 25.9375 90.1771 25.2083 90.1562 24.4375C90.1562 23.6458 90.1458 22.9167 90.125 22.25ZM95.875 13.8125C95.5208 13.8125 95.1458 13.9896 94.75 14.3438C94.3542 14.6771 93.9792 15.0938 93.625 15.5938C93.2917 16.0729 93.0104 16.5729 92.7812 17.0938C92.5729 17.5938 92.4688 18.0104 92.4688 18.3438C92.7812 18.3438 93.2292 18.2292 93.8125 18C94.4167 17.75 95.0104 17.4479 95.5938 17.0938C96.1771 16.7396 96.6875 16.3646 97.125 15.9688C97.5625 15.5729 97.7812 15.1979 97.7812 14.8438C97.7812 14.6562 97.7083 14.5 97.5625 14.375C97.4167 14.25 97.2396 14.1458 97.0312 14.0625C96.8438 13.9792 96.6458 13.9167 96.4375 13.875C96.2292 13.8333 96.0417 13.8125 95.875 13.8125ZM118.906 28.375C118.906 27.0208 118.875 25.5938 118.812 24.0938C118.771 22.5938 118.719 21.0833 118.656 19.5625C118.615 18.0208 118.604 16.5104 118.625 15.0312C118.646 13.5521 118.74 12.1667 118.906 10.875C118.948 10.8542 119.042 10.8438 119.188 10.8438C119.354 10.8229 119.469 10.8125 119.531 10.8125C119.823 10.8125 120.052 10.8646 120.219 10.9688C120.406 11.0521 120.5 11.25 120.5 11.5625C120.5 12.7917 120.49 14.1354 120.469 15.5938C120.469 17.0312 120.458 18.5 120.438 20C120.438 21.4792 120.438 22.9479 120.438 24.4062C120.438 25.8646 120.458 27.1875 120.5 28.375C120.521 28.7292 120.448 28.9583 120.281 29.0625C120.135 29.1875 119.948 29.25 119.719 29.25C119.469 29.25 119.26 29.1875 119.094 29.0625C118.927 28.9583 118.865 28.7292 118.906 28.375ZM118.219 6C118.219 5.75 118.302 5.58333 118.469 5.5C118.635 5.41667 118.823 5.375 119.031 5.375C119.448 5.375 119.708 5.51042 119.812 5.78125C119.917 6.05208 119.969 6.36458 119.969 6.71875C119.844 6.94792 119.688 7.11458 119.5 7.21875C119.312 7.30208 119.115 7.32292 118.906 7.28125C118.719 7.21875 118.552 7.08333 118.406 6.875C118.281 6.66667 118.219 6.375 118.219 6ZM123.906 28.9062C123.844 28.3229 123.792 27.5312 123.75 26.5312C123.708 25.5312 123.667 24.4479 123.625 23.2812C123.583 22.0938 123.531 20.8646 123.469 19.5938C123.427 18.3229 123.375 17.1146 123.312 15.9688C123.25 14.8229 123.167 13.7812 123.062 12.8438C122.979 11.9062 122.885 11.1562 122.781 10.5938C122.781 10.1771 122.875 9.9375 123.062 9.875C123.25 9.79167 123.49 9.75 123.781 9.75C123.823 9.75 123.917 9.75 124.062 9.75C124.208 9.75 124.312 9.76042 124.375 9.78125C124.562 10.4062 124.677 11.2188 124.719 12.2188C124.781 13.1979 124.823 14.2708 124.844 15.4375C124.885 16.6042 124.917 17.8125 124.938 19.0625C124.979 20.3125 125.052 21.5 125.156 22.625C125.448 20.9792 125.688 19.6146 125.875 18.5312C126.083 17.4479 126.271 16.5833 126.438 15.9375C126.625 15.2708 126.792 14.7812 126.938 14.4688C127.104 14.1354 127.281 13.9167 127.469 13.8125C127.677 13.7083 127.896 13.6667 128.125 13.6875C128.375 13.6875 128.667 13.6875 129 13.6875C129.375 13.6875 129.677 13.8333 129.906 14.125C130.156 14.4167 130.344 14.7917 130.469 15.25C130.615 15.7083 130.719 16.2083 130.781 16.75C130.865 17.2917 130.938 17.8229 131 18.3438C131.062 18.8438 131.125 19.3021 131.188 19.7188C131.271 20.1354 131.396 20.4271 131.562 20.5938C132.083 19.0521 132.531 17.7917 132.906 16.8125C133.281 15.8333 133.604 15.0625 133.875 14.5C134.146 13.9167 134.385 13.5 134.594 13.25C134.802 13 134.99 12.8542 135.156 12.8125C135.323 12.75 135.469 12.7396 135.594 12.7812C135.74 12.8229 135.885 12.8438 136.031 12.8438C136.594 12.8438 137.021 13.1354 137.312 13.7188C137.646 14.6562 137.875 15.5521 138 16.4062C138.125 17.2396 138.198 18.0521 138.219 18.8438C138.24 19.6146 138.24 20.3542 138.219 21.0625C138.219 21.7708 138.24 22.4583 138.281 23.125C138.344 23.7917 138.458 24.4479 138.625 25.0938C138.812 25.7396 139.125 26.375 139.562 27C139.396 27.3333 139.229 27.5625 139.062 27.6875C138.896 27.7917 138.667 27.8438 138.375 27.8438C138.125 27.8438 137.906 27.7604 137.719 27.5938C137.531 27.4062 137.375 27.1875 137.25 26.9375C137.125 26.6667 137.021 26.3958 136.938 26.125C136.875 25.8542 136.812 25.6146 136.75 25.4062C136.667 22.4271 136.531 20.1458 136.344 18.5625C136.177 16.9583 135.917 16.1146 135.562 16.0312C135.208 15.9479 134.75 16.6458 134.188 18.125C133.646 19.5833 132.969 21.875 132.156 25C132.094 25.1042 132 25.1667 131.875 25.1875C131.75 25.2083 131.615 25.2188 131.469 25.2188C131.344 25.2188 131.208 25.2188 131.062 25.2188C130.938 25.1979 130.812 25.1979 130.688 25.2188C130.167 22.1562 129.729 19.9583 129.375 18.625C129.042 17.2708 128.698 16.75 128.344 17.0625C127.99 17.375 127.594 18.5 127.156 20.4375C126.719 22.3542 126.156 25.0521 125.469 28.5312L123.906 28.9062ZM150.062 28.1875C149.958 27.6458 149.865 27 149.781 26.25C149.719 25.4792 149.646 24.7083 149.562 23.9375C149.479 23.1458 149.375 22.4062 149.25 21.7188C149.146 21.0312 148.979 20.4688 148.75 20.0312C147.688 22.1979 146.75 23.9062 145.938 25.1562C145.125 26.3854 144.406 27.2708 143.781 27.8125C143.177 28.3333 142.667 28.5833 142.25 28.5625C141.833 28.5417 141.49 28.3542 141.219 28C140.948 27.6458 140.75 27.1979 140.625 26.6562C140.521 26.0938 140.448 25.5729 140.406 25.0938C140.406 24.6354 140.51 23.9896 140.719 23.1562C140.927 22.3229 141.208 21.4167 141.562 20.4375C141.917 19.4375 142.333 18.4271 142.812 17.4062C143.312 16.3854 143.844 15.4583 144.406 14.625C144.969 13.7917 145.552 13.1042 146.156 12.5625C146.76 12.0208 147.365 11.75 147.969 11.75C148.865 11.6042 149.521 11.8021 149.938 12.3438C150.375 12.8646 150.458 13.75 150.188 15C150.188 16.375 150.24 17.5521 150.344 18.5312C150.469 19.5104 150.594 20.4479 150.719 21.3438C150.865 22.2396 150.99 23.1771 151.094 24.1562C151.219 25.1354 151.281 26.3125 151.281 27.6875C151.281 27.9375 151.25 28.1562 151.188 28.3438C151.146 28.5104 150.896 28.5938 150.438 28.5938C150.375 28.5938 150.292 28.5417 150.188 28.4375C150.104 28.3333 150.062 28.25 150.062 28.1875ZM148.375 14.2188C148.146 13.8854 147.833 13.8542 147.438 14.125C147.042 14.3958 146.625 14.8438 146.188 15.4688C145.75 16.0938 145.302 16.8438 144.844 17.7188C144.385 18.5938 143.958 19.4792 143.562 20.375C143.167 21.2708 142.823 22.125 142.531 22.9375C142.24 23.7292 142.042 24.3854 141.938 24.9062C141.938 25.6562 142.052 26.0833 142.281 26.1875C142.51 26.2708 142.792 26.1458 143.125 25.8125C143.458 25.4792 143.833 25 144.25 24.375C144.688 23.75 145.104 23.0833 145.5 22.375C145.917 21.6667 146.302 20.9792 146.656 20.3125C147.031 19.6458 147.323 19.1042 147.531 18.6875C147.719 18.25 147.865 17.8438 147.969 17.4688C148.073 17.0938 148.156 16.7396 148.219 16.4062C148.302 16.0521 148.344 15.6979 148.344 15.3438C148.365 14.9896 148.375 14.6146 148.375 14.2188ZM155.062 41.2188C156.896 41.1146 158.333 40.6354 159.375 39.7812C160.438 38.9271 161.229 37.8229 161.75 36.4688C162.271 35.1146 162.583 33.5625 162.688 31.8125C162.792 30.0833 162.802 28.2917 162.719 26.4375C162.635 24.5833 162.51 22.7292 162.344 20.875C162.198 19 162.135 17.2604 162.156 15.6562C161.26 18.2812 160.417 20.4062 159.625 22.0312C158.833 23.6354 158.094 24.8542 157.406 25.6875C156.74 26.5 156.125 27 155.562 27.1875C155.021 27.3542 154.542 27.3229 154.125 27.0938C153.708 26.8438 153.365 26.4583 153.094 25.9375C152.844 25.3958 152.667 24.8438 152.562 24.2812C152.604 23.3229 152.792 22.2708 153.125 21.125C153.479 19.9583 153.927 18.8229 154.469 17.7188C155.031 16.5938 155.677 15.5521 156.406 14.5938C157.135 13.6146 157.906 12.8542 158.719 12.3125C159.531 11.75 160.375 11.4583 161.25 11.4375C162.125 11.3958 162.969 11.7292 163.781 12.4375C163.802 12.4583 163.833 12.7396 163.875 13.2812C163.938 13.8021 164 14.5 164.062 15.375C164.146 16.2292 164.229 17.1979 164.312 18.2812C164.417 19.3438 164.51 20.4271 164.594 21.5312C164.677 22.6146 164.75 23.6562 164.812 24.6562C164.875 25.6562 164.938 26.5208 165 27.25C165.083 28.4375 165.031 29.6979 164.844 31.0312C164.677 32.3646 164.406 33.6562 164.031 34.9062C163.656 36.1771 163.177 37.3646 162.594 38.4688C162.031 39.5729 161.375 40.4792 160.625 41.1875C159.896 41.8958 159.073 42.3438 158.156 42.5312C157.26 42.7396 156.302 42.5833 155.281 42.0625C155.219 42.0625 155.125 42.0521 155 42.0312C154.875 42.0312 154.771 42 154.688 41.9375C154.625 41.875 154.615 41.7917 154.656 41.6875C154.698 41.5833 154.833 41.4271 155.062 41.2188ZM154.188 24.0625C154.396 24.7083 154.667 25.0417 155 25.0625C155.354 25.0625 155.729 24.8438 156.125 24.4062C156.521 23.9479 156.948 23.3125 157.406 22.5C157.885 21.6875 158.354 20.8021 158.812 19.8438C159.271 18.8854 159.719 17.9062 160.156 16.9062C160.615 15.8854 161.042 14.9375 161.438 14.0625C161.438 13.8333 161.385 13.625 161.281 13.4375C161.177 13.2292 160.948 13.1667 160.594 13.25C160.01 13.375 159.438 13.6562 158.875 14.0938C158.333 14.5312 157.823 15.0729 157.344 15.7188C156.885 16.3438 156.458 17.0417 156.062 17.8125C155.688 18.5625 155.354 19.3229 155.062 20.0938C154.792 20.8438 154.573 21.5625 154.406 22.25C154.26 22.9375 154.188 23.5417 154.188 24.0625ZM167.812 22.25C167.708 22.2708 167.552 22.3021 167.344 22.3438C167.135 22.3854 166.917 22.3958 166.688 22.375C166.458 22.3542 166.26 22.2917 166.094 22.1875C165.906 22.0833 165.812 21.9062 165.812 21.6562C165.812 21.5104 165.844 21.4062 165.906 21.3438C165.969 21.2812 166.073 21.1875 166.219 21.0625C166.677 20.6875 167.062 20.2083 167.375 19.625C167.708 19.0208 168.01 18.3854 168.281 17.7188C168.552 17.0312 168.833 16.3542 169.125 15.6875C169.438 15 169.792 14.3854 170.188 13.8438C170.583 13.3021 171.073 12.8646 171.656 12.5312C172.24 12.1979 172.958 12.0417 173.812 12.0625C174.167 12.0625 174.562 12.1458 175 12.3125C175.438 12.4792 175.844 12.7083 176.219 13C176.594 13.2708 176.906 13.6042 177.156 14C177.406 14.3958 177.531 14.8333 177.531 15.3125C177.635 15.4792 177.531 15.7188 177.219 16.0312C176.927 16.3438 176.521 16.6875 176 17.0625C175.479 17.4167 174.885 17.7917 174.219 18.1875C173.573 18.5625 172.948 18.9167 172.344 19.25C171.74 19.5833 171.208 19.875 170.75 20.125C170.292 20.375 169.99 20.5625 169.844 20.6875C169.74 20.8958 169.656 21.1354 169.594 21.4062C169.531 21.6771 169.479 21.9375 169.438 22.1875C169.417 22.4167 169.396 22.6354 169.375 22.8438C169.375 23.0312 169.375 23.1771 169.375 23.2812C169.375 23.6771 169.354 24.1146 169.312 24.5938C169.292 25.0729 169.312 25.5312 169.375 25.9688C169.458 26.3854 169.635 26.7396 169.906 27.0312C170.177 27.3021 170.635 27.4375 171.281 27.4375C171.969 27.4375 172.615 27.2708 173.219 26.9375C173.823 26.5833 174.385 26.1562 174.906 25.6562C175.427 25.1562 175.896 24.6146 176.312 24.0312C176.75 23.4479 177.135 22.9062 177.469 22.4062C177.823 21.8854 178.135 21.4583 178.406 21.125C178.677 20.7917 178.906 20.625 179.094 20.625C179.302 20.625 179.521 20.6667 179.75 20.75C180 20.8125 180.125 20.9792 180.125 21.25C180.125 21.625 179.969 22.0729 179.656 22.5938C179.365 23.1146 178.969 23.6667 178.469 24.25C177.99 24.8333 177.427 25.4167 176.781 26C176.156 26.5625 175.521 27.0729 174.875 27.5312C174.229 27.9688 173.594 28.3333 172.969 28.625C172.344 28.8958 171.792 29.0312 171.312 29.0312C170.375 29.0312 169.667 28.8021 169.188 28.3438C168.708 27.8854 168.365 27.3125 168.156 26.625C167.969 25.9375 167.865 25.2083 167.844 24.4375C167.844 23.6458 167.833 22.9167 167.812 22.25ZM173.562 13.8125C173.208 13.8125 172.833 13.9896 172.438 14.3438C172.042 14.6771 171.667 15.0938 171.312 15.5938C170.979 16.0729 170.698 16.5729 170.469 17.0938C170.26 17.5938 170.156 18.0104 170.156 18.3438C170.469 18.3438 170.917 18.2292 171.5 18C172.104 17.75 172.698 17.4479 173.281 17.0938C173.865 16.7396 174.375 16.3646 174.812 15.9688C175.25 15.5729 175.469 15.1979 175.469 14.8438C175.469 14.6562 175.396 14.5 175.25 14.375C175.104 14.25 174.927 14.1458 174.719 14.0625C174.531 13.9792 174.333 13.9167 174.125 13.875C173.917 13.8333 173.729 13.8125 173.562 13.8125ZM198.562 17.4688C198.479 17.4688 198.354 17.5104 198.188 17.5938C198.021 17.6562 197.844 17.7396 197.656 17.8438C197.49 17.9271 197.323 18.0104 197.156 18.0938C196.99 18.1771 196.844 18.2188 196.719 18.2188C196.51 18.2188 196.323 18.1771 196.156 18.0938C196.01 18.0104 195.938 17.8438 195.938 17.5938C195.938 17.3854 196.031 17.1875 196.219 17C196.427 16.8125 196.667 16.625 196.938 16.4375C197.208 16.25 197.479 16.0729 197.75 15.9062C198.021 15.7396 198.219 15.5729 198.344 15.4062C198.302 15.0729 198.271 14.4479 198.25 13.5312C198.229 12.6146 198.229 11.5729 198.25 10.4062C198.292 9.21875 198.365 8 198.469 6.75C198.594 5.5 198.771 4.38542 199 3.40625C199.25 2.40625 199.573 1.625 199.969 1.0625C200.365 0.5 200.875 0.322917 201.5 0.53125C201.938 0.53125 202.333 0.666667 202.688 0.9375C203.042 1.1875 203.344 1.51042 203.594 1.90625C203.844 2.28125 204.031 2.69792 204.156 3.15625C204.302 3.61458 204.375 4.03125 204.375 4.40625C204.375 4.61458 204.323 4.84375 204.219 5.09375C204.135 5.32292 203.969 5.4375 203.719 5.4375H203.625C203.604 5.4375 203.583 5.42708 203.562 5.40625C203.062 4.13542 202.635 3.33333 202.281 3C201.948 2.64583 201.656 2.63542 201.406 2.96875C201.177 3.30208 200.979 3.89583 200.812 4.75C200.667 5.60417 200.542 6.59375 200.438 7.71875C200.333 8.82292 200.24 10 200.156 11.25C200.073 12.4792 199.99 13.625 199.906 14.6875C200.323 14.5833 200.667 14.4792 200.938 14.375C201.229 14.2708 201.49 14.1667 201.719 14.0625C201.948 13.9375 202.156 13.8229 202.344 13.7188C202.531 13.5938 202.74 13.4896 202.969 13.4062C203.406 13.1979 203.885 13 204.406 12.8125C204.948 12.6042 205.469 12.5 205.969 12.5C205.969 13.1042 205.854 13.6042 205.625 14C205.417 14.3958 205.135 14.7188 204.781 14.9688C204.448 15.2188 204.062 15.4062 203.625 15.5312C203.188 15.6354 202.74 15.7292 202.281 15.8125C201.844 15.8958 201.427 15.9792 201.031 16.0625C200.635 16.1458 200.292 16.25 200 16.375C200.062 17.7292 200.146 18.9167 200.25 19.9375C200.375 20.9583 200.479 21.8646 200.562 22.6562C200.667 23.4479 200.74 24.1771 200.781 24.8438C200.844 25.4896 200.844 26.1354 200.781 26.7812C200.781 26.9271 200.781 27.1354 200.781 27.4062C200.802 27.6562 200.792 27.9062 200.75 28.1562C200.729 28.4062 200.656 28.625 200.531 28.8125C200.406 28.9792 200.208 29.0625 199.938 29.0625C199.688 29.0625 199.5 29.0104 199.375 28.9062C199.25 28.7812 199.167 28.5417 199.125 28.1875C199 26.5 198.896 25.0729 198.812 23.9062C198.75 22.7188 198.698 21.7292 198.656 20.9375C198.615 20.125 198.594 19.4896 198.594 19.0312V17.5938C198.594 17.5104 198.583 17.4688 198.562 17.4688ZM207.125 24.7188C206.979 23.7604 206.906 22.8333 206.906 21.9375C206.906 21.0208 206.958 20.0938 207.062 19.1562C207.188 18.2188 207.354 17.25 207.562 16.25C207.792 15.2292 208.052 14.1354 208.344 12.9688C208.344 12.7396 208.406 12.5312 208.531 12.3438C208.656 12.1354 208.823 11.9688 209.031 11.8438C209.24 11.6979 209.458 11.5833 209.688 11.5C209.917 11.4167 210.135 11.375 210.344 11.375C210.802 11.375 211.219 11.5208 211.594 11.8125C211.969 12.1042 212.302 12.4583 212.594 12.875C212.906 13.2917 213.167 13.7396 213.375 14.2188C213.604 14.6771 213.792 15.0729 213.938 15.4062C214.104 16.1354 214.219 16.9688 214.281 17.9062C214.365 18.8229 214.375 19.7604 214.312 20.7188C214.25 21.6771 214.104 22.625 213.875 23.5625C213.646 24.4792 213.323 25.3229 212.906 26.0938C212.49 26.8646 211.948 27.5104 211.281 28.0312C210.635 28.5521 209.865 28.875 208.969 29C208.49 29 208.125 28.8438 207.875 28.5312C207.625 28.1979 207.438 27.8021 207.312 27.3438C207.208 26.8646 207.146 26.3854 207.125 25.9062C207.125 25.4271 207.125 25.0312 207.125 24.7188ZM208.719 24.625C208.719 24.8333 208.719 25.0312 208.719 25.2188C208.74 25.4062 208.76 25.5938 208.781 25.7812C208.823 25.9479 208.865 26.1354 208.906 26.3438C208.969 26.5312 209.042 26.75 209.125 27H209.312C209.812 27 210.24 26.8333 210.594 26.5C210.948 26.1667 211.25 25.7396 211.5 25.2188C211.75 24.6771 211.958 24.0833 212.125 23.4375C212.292 22.7708 212.417 22.125 212.5 21.5C212.604 20.8542 212.667 20.2604 212.688 19.7188C212.729 19.1562 212.75 18.7083 212.75 18.375V17.75C212.75 17.4792 212.74 17.1771 212.719 16.8438C212.698 16.4896 212.656 16.1354 212.594 15.7812C212.552 15.4062 212.479 15.0729 212.375 14.7812C212.271 14.4688 212.135 14.2188 211.969 14.0312C211.802 13.8438 211.583 13.75 211.312 13.75C210.854 13.6042 210.458 13.6354 210.125 13.8438C209.812 14.0521 209.552 14.4062 209.344 14.9062C209.156 15.3854 209.01 15.9792 208.906 16.6875C208.802 17.3958 208.74 18.1771 208.719 19.0312C208.698 19.8854 208.688 20.7917 208.688 21.75C208.708 22.7083 208.719 23.6667 208.719 24.625ZM215.688 13.9375V13.6875C215.688 13.4792 215.76 13.3333 215.906 13.25C216.073 13.1667 216.26 13.125 216.469 13.125C216.635 13.125 216.792 13.1458 216.938 13.1875C217.083 13.2083 217.198 13.3229 217.281 13.5312C217.344 13.8438 217.406 14.2812 217.469 14.8438C217.531 15.3854 217.604 15.9896 217.688 16.6562C217.771 17.3229 217.854 18.0312 217.938 18.7812C218.042 19.5104 218.135 20.2083 218.219 20.875C218.323 21.5208 218.427 22.1042 218.531 22.625C218.635 23.1458 218.75 23.5417 218.875 23.8125C218.812 21.8125 218.875 20.0833 219.062 18.625C219.25 17.1458 219.604 15.9479 220.125 15.0312C220.667 14.0938 221.396 13.4479 222.312 13.0938C223.25 12.7188 224.417 12.6354 225.812 12.8438C226.458 12.8438 226.781 13.1875 226.781 13.875C226.781 14.1458 226.604 14.3333 226.25 14.4375C225.896 14.5208 225.5 14.5833 225.062 14.625C224.625 14.6458 224.198 14.6771 223.781 14.7188C223.365 14.7604 223.062 14.8646 222.875 15.0312C222.125 15.4479 221.594 16.0938 221.281 16.9688C220.99 17.8438 220.781 18.875 220.656 20.0625C220.531 21.25 220.438 22.5521 220.375 23.9688C220.333 25.3646 220.198 26.8021 219.969 28.2812C219.969 28.4896 219.885 28.6458 219.719 28.75C219.552 28.8542 219.344 28.9062 219.094 28.9062C218.865 28.9062 218.635 28.8542 218.406 28.75C218.198 28.6458 218.031 28.4896 217.906 28.2812L215.688 13.9375ZM251.656 28.1875C251.552 27.6458 251.458 27 251.375 26.25C251.312 25.4792 251.24 24.7083 251.156 23.9375C251.073 23.1458 250.969 22.4062 250.844 21.7188C250.74 21.0312 250.573 20.4688 250.344 20.0312C249.281 22.1979 248.344 23.9062 247.531 25.1562C246.719 26.3854 246 27.2708 245.375 27.8125C244.771 28.3333 244.26 28.5833 243.844 28.5625C243.427 28.5417 243.083 28.3542 242.812 28C242.542 27.6458 242.344 27.1979 242.219 26.6562C242.115 26.0938 242.042 25.5729 242 25.0938C242 24.6354 242.104 23.9896 242.312 23.1562C242.521 22.3229 242.802 21.4167 243.156 20.4375C243.51 19.4375 243.927 18.4271 244.406 17.4062C244.906 16.3854 245.438 15.4583 246 14.625C246.562 13.7917 247.146 13.1042 247.75 12.5625C248.354 12.0208 248.958 11.75 249.562 11.75C250.458 11.6042 251.115 11.8021 251.531 12.3438C251.969 12.8646 252.052 13.75 251.781 15C251.781 16.375 251.833 17.5521 251.938 18.5312C252.062 19.5104 252.188 20.4479 252.312 21.3438C252.458 22.2396 252.583 23.1771 252.688 24.1562C252.812 25.1354 252.875 26.3125 252.875 27.6875C252.875 27.9375 252.844 28.1562 252.781 28.3438C252.74 28.5104 252.49 28.5938 252.031 28.5938C251.969 28.5938 251.885 28.5417 251.781 28.4375C251.698 28.3333 251.656 28.25 251.656 28.1875ZM249.969 14.2188C249.74 13.8854 249.427 13.8542 249.031 14.125C248.635 14.3958 248.219 14.8438 247.781 15.4688C247.344 16.0938 246.896 16.8438 246.438 17.7188C245.979 18.5938 245.552 19.4792 245.156 20.375C244.76 21.2708 244.417 22.125 244.125 22.9375C243.833 23.7292 243.635 24.3854 243.531 24.9062C243.531 25.6562 243.646 26.0833 243.875 26.1875C244.104 26.2708 244.385 26.1458 244.719 25.8125C245.052 25.4792 245.427 25 245.844 24.375C246.281 23.75 246.698 23.0833 247.094 22.375C247.51 21.6667 247.896 20.9792 248.25 20.3125C248.625 19.6458 248.917 19.1042 249.125 18.6875C249.312 18.25 249.458 17.8438 249.562 17.4688C249.667 17.0938 249.75 16.7396 249.812 16.4062C249.896 16.0521 249.938 15.6979 249.938 15.3438C249.958 14.9896 249.969 14.6146 249.969 14.2188ZM271.375 28.5312C271.375 28.5521 271.594 28.4271 272.031 28.1562C272.49 27.8854 273.021 27.5312 273.625 27.0938C274.25 26.6354 274.885 26.1458 275.531 25.625C276.177 25.0833 276.708 24.5729 277.125 24.0938C277.542 23.6146 277.76 23.2083 277.781 22.875C277.823 22.5208 277.542 22.2917 276.938 22.1875C276.188 22.0833 275.552 22.0938 275.031 22.2188C274.531 22.3438 274.073 22.4896 273.656 22.6562C273.24 22.8229 272.844 22.9792 272.469 23.125C272.115 23.2708 271.719 23.3229 271.281 23.2812C270.365 23.2812 269.729 23 269.375 22.4375C269.042 21.8542 268.875 21.0729 268.875 20.0938C268.875 19.1146 269.094 18.1875 269.531 17.3125C269.969 16.4167 270.531 15.6458 271.219 15C271.906 14.3542 272.698 13.8438 273.594 13.4688C274.49 13.0729 275.406 12.875 276.344 12.875C276.719 12.875 277.042 12.9062 277.312 12.9688C277.583 13.0312 277.719 13.2708 277.719 13.6875C277.719 13.9792 277.594 14.2604 277.344 14.5312C277.094 14.7812 276.812 14.9062 276.5 14.9062C276.479 14.9062 276.427 14.8958 276.344 14.875C276.26 14.8333 276.177 14.7812 276.094 14.7188C276.01 14.6562 275.927 14.6146 275.844 14.5938C275.76 14.5521 275.708 14.5312 275.688 14.5312C275.021 14.3438 274.375 14.4375 273.75 14.8125C273.125 15.1875 272.562 15.6979 272.062 16.3438C271.583 16.9688 271.198 17.6562 270.906 18.4062C270.615 19.1354 270.469 19.7917 270.469 20.375C270.469 20.6042 270.51 20.7917 270.594 20.9375C270.698 21.0625 270.823 21.1562 270.969 21.2188C271.135 21.2812 271.312 21.3229 271.5 21.3438C271.708 21.3438 271.917 21.3438 272.125 21.3438C272.542 21.3438 272.958 21.2812 273.375 21.1562C273.812 21.0312 274.229 20.8854 274.625 20.7188C275.042 20.5521 275.458 20.4062 275.875 20.2812C276.312 20.1562 276.76 20.0938 277.219 20.0938C277.427 20.0938 277.656 20.1562 277.906 20.2812C278.156 20.3854 278.385 20.5521 278.594 20.7812C278.802 20.9896 278.979 21.2396 279.125 21.5312C279.271 21.8021 279.354 22.1042 279.375 22.4375C279.5 22.7292 279.458 23.1146 279.25 23.5938C279.062 24.0729 278.771 24.5833 278.375 25.125C277.979 25.6667 277.5 26.2188 276.938 26.7812C276.375 27.3229 275.812 27.8229 275.25 28.2812C274.688 28.7188 274.135 29.0729 273.594 29.3438C273.052 29.6354 272.594 29.7708 272.219 29.75C271.802 29.75 271.552 29.625 271.469 29.375C271.406 29.125 271.375 28.8438 271.375 28.5312ZM291.844 15.3438C291.073 15.0521 290.333 15.1667 289.625 15.6875C288.917 16.2083 288.24 16.9479 287.594 17.9062C286.948 18.8438 286.333 19.9167 285.75 21.125C285.167 22.3333 284.625 23.4792 284.125 24.5625C283.625 25.6458 283.167 26.5729 282.75 27.3438C282.354 28.1146 281.99 28.5417 281.656 28.625C281.406 28.625 281.208 28.5833 281.062 28.5C280.938 28.3958 280.875 28.1562 280.875 27.7812V5.8125C280.875 5.625 280.948 5.51042 281.094 5.46875C281.26 5.42708 281.438 5.41667 281.625 5.4375C281.812 5.45833 281.99 5.51042 282.156 5.59375C282.323 5.65625 282.427 5.72917 282.469 5.8125L282.875 23.4062C283.104 23.0312 283.312 22.5104 283.5 21.8438C283.708 21.1562 283.948 20.4271 284.219 19.6562C284.49 18.8646 284.802 18.0833 285.156 17.3125C285.531 16.5208 285.99 15.8125 286.531 15.1875C287.073 14.5625 287.729 14.0833 288.5 13.75C289.292 13.3958 290.219 13.2708 291.281 13.375C291.99 13.375 292.562 13.6042 293 14.0625C293.438 14.5 293.667 15.0833 293.688 15.8125L294 28.2812C294 28.3646 293.979 28.4896 293.938 28.6562C293.917 28.8021 293.833 28.9271 293.688 29.0312C293.562 29.1562 293.375 29.2292 293.125 29.25C292.896 29.2917 292.594 29.2396 292.219 29.0938L291.844 15.3438ZM295.531 24.7188C295.385 23.7604 295.312 22.8333 295.312 21.9375C295.312 21.0208 295.365 20.0938 295.469 19.1562C295.594 18.2188 295.76 17.25 295.969 16.25C296.198 15.2292 296.458 14.1354 296.75 12.9688C296.75 12.7396 296.812 12.5312 296.938 12.3438C297.062 12.1354 297.229 11.9688 297.438 11.8438C297.646 11.6979 297.865 11.5833 298.094 11.5C298.323 11.4167 298.542 11.375 298.75 11.375C299.208 11.375 299.625 11.5208 300 11.8125C300.375 12.1042 300.708 12.4583 301 12.875C301.312 13.2917 301.573 13.7396 301.781 14.2188C302.01 14.6771 302.198 15.0729 302.344 15.4062C302.51 16.1354 302.625 16.9688 302.688 17.9062C302.771 18.8229 302.781 19.7604 302.719 20.7188C302.656 21.6771 302.51 22.625 302.281 23.5625C302.052 24.4792 301.729 25.3229 301.312 26.0938C300.896 26.8646 300.354 27.5104 299.688 28.0312C299.042 28.5521 298.271 28.875 297.375 29C296.896 29 296.531 28.8438 296.281 28.5312C296.031 28.1979 295.844 27.8021 295.719 27.3438C295.615 26.8646 295.552 26.3854 295.531 25.9062C295.531 25.4271 295.531 25.0312 295.531 24.7188ZM297.125 24.625C297.125 24.8333 297.125 25.0312 297.125 25.2188C297.146 25.4062 297.167 25.5938 297.188 25.7812C297.229 25.9479 297.271 26.1354 297.312 26.3438C297.375 26.5312 297.448 26.75 297.531 27H297.719C298.219 27 298.646 26.8333 299 26.5C299.354 26.1667 299.656 25.7396 299.906 25.2188C300.156 24.6771 300.365 24.0833 300.531 23.4375C300.698 22.7708 300.823 22.125 300.906 21.5C301.01 20.8542 301.073 20.2604 301.094 19.7188C301.135 19.1562 301.156 18.7083 301.156 18.375V17.75C301.156 17.4792 301.146 17.1771 301.125 16.8438C301.104 16.4896 301.062 16.1354 301 15.7812C300.958 15.4062 300.885 15.0729 300.781 14.7812C300.677 14.4688 300.542 14.2188 300.375 14.0312C300.208 13.8438 299.99 13.75 299.719 13.75C299.26 13.6042 298.865 13.6354 298.531 13.8438C298.219 14.0521 297.958 14.4062 297.75 14.9062C297.562 15.3854 297.417 15.9792 297.312 16.6875C297.208 17.3958 297.146 18.1771 297.125 19.0312C297.104 19.8854 297.094 20.7917 297.094 21.75C297.115 22.7083 297.125 23.6667 297.125 24.625ZM304.094 13.9375V13.6875C304.094 13.4792 304.167 13.3333 304.312 13.25C304.479 13.1667 304.667 13.125 304.875 13.125C305.042 13.125 305.198 13.1458 305.344 13.1875C305.49 13.2083 305.604 13.3229 305.688 13.5312C305.75 13.8438 305.812 14.2812 305.875 14.8438C305.938 15.3854 306.01 15.9896 306.094 16.6562C306.177 17.3229 306.26 18.0312 306.344 18.7812C306.448 19.5104 306.542 20.2083 306.625 20.875C306.729 21.5208 306.833 22.1042 306.938 22.625C307.042 23.1458 307.156 23.5417 307.281 23.8125C307.219 21.8125 307.281 20.0833 307.469 18.625C307.656 17.1458 308.01 15.9479 308.531 15.0312C309.073 14.0938 309.802 13.4479 310.719 13.0938C311.656 12.7188 312.823 12.6354 314.219 12.8438C314.865 12.8438 315.188 13.1875 315.188 13.875C315.188 14.1458 315.01 14.3333 314.656 14.4375C314.302 14.5208 313.906 14.5833 313.469 14.625C313.031 14.6458 312.604 14.6771 312.188 14.7188C311.771 14.7604 311.469 14.8646 311.281 15.0312C310.531 15.4479 310 16.0938 309.688 16.9688C309.396 17.8438 309.188 18.875 309.062 20.0625C308.938 21.25 308.844 22.5521 308.781 23.9688C308.74 25.3646 308.604 26.8021 308.375 28.2812C308.375 28.4896 308.292 28.6458 308.125 28.75C307.958 28.8542 307.75 28.9062 307.5 28.9062C307.271 28.9062 307.042 28.8542 306.812 28.75C306.604 28.6458 306.438 28.4896 306.312 28.2812L304.094 13.9375ZM317.625 15.6562C317.417 15.7604 317.219 15.875 317.031 16C316.865 16.1042 316.698 16.2083 316.531 16.3125C316.365 16.3958 316.198 16.4583 316.031 16.5C315.865 16.5417 315.688 16.5417 315.5 16.5C315.375 16.5 315.271 16.4271 315.188 16.2812C315.104 16.1146 315.042 15.9375 315 15.75C314.938 15.5417 314.896 15.3438 314.875 15.1562C314.854 14.9479 314.854 14.7917 314.875 14.6875L317.875 12.9688L318.062 4.96875C318.104 4.69792 318.271 4.59375 318.562 4.65625C318.854 4.69792 319.156 4.76042 319.469 4.84375C319.51 4.84375 319.573 4.86458 319.656 4.90625C319.76 4.92708 319.833 4.94792 319.875 4.96875C319.833 5.53125 319.781 6.14583 319.719 6.8125C319.677 7.45833 319.635 8.11458 319.594 8.78125C319.552 9.42708 319.521 10.0625 319.5 10.6875C319.5 11.3125 319.531 11.875 319.594 12.375L324.281 11.0625C324.365 11.0417 324.427 11.1042 324.469 11.25C324.531 11.375 324.583 11.5312 324.625 11.7188C324.688 11.9062 324.729 12.0938 324.75 12.2812C324.771 12.4688 324.781 12.5625 324.781 12.5625L319.469 14.8125C319.469 15 319.479 15.4479 319.5 16.1562C319.542 16.8646 319.583 17.7083 319.625 18.6875C319.667 19.6458 319.708 20.6875 319.75 21.8125C319.792 22.9167 319.833 23.9479 319.875 24.9062C319.917 25.8646 319.948 26.7083 319.969 27.4375C319.99 28.1458 320 28.5938 320 28.7812C319.958 29.4062 319.771 29.7188 319.438 29.7188C319.125 29.7188 318.781 29.5625 318.406 29.25L317.625 15.6562ZM339.375 16.2188C339.375 16.1979 339.365 16.1667 339.344 16.125C339.344 16.0625 339.344 16.0208 339.344 16C339.344 15.6875 339.469 15.5104 339.719 15.4688C339.969 15.4062 340.198 15.375 340.406 15.375C340.635 15.375 340.896 15.5729 341.188 15.9688C341.479 16.3438 341.802 16.8542 342.156 17.5C342.531 18.125 342.906 18.8125 343.281 19.5625C343.677 20.3125 344.073 21.0521 344.469 21.7812C344.885 22.4896 345.302 23.1354 345.719 23.7188C346.156 24.3021 346.573 24.7292 346.969 25C347.094 23.1042 347.188 21.4896 347.25 20.1562C347.312 18.8229 347.354 17.6979 347.375 16.7812C347.417 15.8646 347.438 15.1458 347.438 14.625C347.438 14.0833 347.427 13.6667 347.406 13.375C347.406 13.0833 347.396 12.8958 347.375 12.8125C347.375 12.7083 347.375 12.6354 347.375 12.5938C347.375 12.2188 347.438 11.9896 347.562 11.9062C347.708 11.8229 347.896 11.7812 348.125 11.7812C348.396 11.7812 348.677 11.8229 348.969 11.9062C349.26 11.9896 349.406 12.1979 349.406 12.5312C349.469 13.8854 349.469 15.2604 349.406 16.6562C349.365 18.0312 349.292 19.4062 349.188 20.7812C349.083 22.1354 349 23.4688 348.938 24.7812C348.875 26.0938 348.875 27.3646 348.938 28.5938C348.896 28.6354 348.802 28.6875 348.656 28.75C348.51 28.7917 348.354 28.8333 348.188 28.875C348.021 28.9167 347.854 28.9479 347.688 28.9688C347.542 28.9896 347.438 29 347.375 29C347.167 28.9583 346.844 28.6771 346.406 28.1562C345.969 27.6146 345.479 26.9375 344.938 26.125C344.396 25.3125 343.833 24.4062 343.25 23.4062C342.667 22.4062 342.104 21.4375 341.562 20.5C341.042 19.5625 340.583 18.7083 340.188 17.9375C339.792 17.1667 339.521 16.5938 339.375 16.2188ZM351.625 28.375C351.625 27.0208 351.594 25.5938 351.531 24.0938C351.49 22.5938 351.438 21.0833 351.375 19.5625C351.333 18.0208 351.323 16.5104 351.344 15.0312C351.365 13.5521 351.458 12.1667 351.625 10.875C351.667 10.8542 351.76 10.8438 351.906 10.8438C352.073 10.8229 352.188 10.8125 352.25 10.8125C352.542 10.8125 352.771 10.8646 352.938 10.9688C353.125 11.0521 353.219 11.25 353.219 11.5625C353.219 12.7917 353.208 14.1354 353.188 15.5938C353.188 17.0312 353.177 18.5 353.156 20C353.156 21.4792 353.156 22.9479 353.156 24.4062C353.156 25.8646 353.177 27.1875 353.219 28.375C353.24 28.7292 353.167 28.9583 353 29.0625C352.854 29.1875 352.667 29.25 352.438 29.25C352.188 29.25 351.979 29.1875 351.812 29.0625C351.646 28.9583 351.583 28.7292 351.625 28.375ZM350.938 6C350.938 5.75 351.021 5.58333 351.188 5.5C351.354 5.41667 351.542 5.375 351.75 5.375C352.167 5.375 352.427 5.51042 352.531 5.78125C352.635 6.05208 352.688 6.36458 352.688 6.71875C352.562 6.94792 352.406 7.11458 352.219 7.21875C352.031 7.30208 351.833 7.32292 351.625 7.28125C351.438 7.21875 351.271 7.08333 351.125 6.875C351 6.66667 350.938 6.375 350.938 6ZM362.219 23.2812C362.01 23.7604 361.74 24.3125 361.406 24.9375C361.094 25.5625 360.719 26.1562 360.281 26.7188C359.865 27.2812 359.375 27.7604 358.812 28.1562C358.25 28.5521 357.625 28.75 356.938 28.75C356.625 28.75 356.375 28.7188 356.188 28.6562C356.021 28.5729 355.865 28.4583 355.719 28.3125C355.594 28.1667 355.469 27.9896 355.344 27.7812C355.24 27.5729 355.104 27.3438 354.938 27.0938C354.875 26.0729 354.833 24.9792 354.812 23.8125C354.812 22.625 354.875 21.4479 355 20.2812C355.125 19.0938 355.333 17.9792 355.625 16.9375C355.938 15.8958 356.365 15.0104 356.906 14.2812C357.469 13.5521 358.167 13.0312 359 12.7188C359.833 12.4062 360.844 12.3854 362.031 12.6562C362.094 12.0729 362.104 11.2917 362.062 10.3125C362.021 9.33333 361.958 8.30208 361.875 7.21875C361.792 6.13542 361.708 5.09375 361.625 4.09375C361.542 3.07292 361.49 2.23958 361.469 1.59375C361.469 1.40625 361.552 1.27083 361.719 1.1875C361.906 1.08333 362.104 1.02083 362.312 1C362.521 0.979167 362.719 0.979167 362.906 1C363.115 1.02083 363.25 1.05208 363.312 1.09375C363.271 3.65625 363.26 6.17708 363.281 8.65625C363.302 11.1146 363.323 13.5729 363.344 16.0312C363.385 18.4688 363.427 20.8958 363.469 23.3125C363.51 25.7292 363.531 28.1458 363.531 30.5625C363.531 30.7917 363.51 31.0312 363.469 31.2812C363.448 31.5521 363.271 31.6875 362.938 31.6875C362.812 31.6875 362.688 31.6458 362.562 31.5625C362.438 31.5 362.354 31.3958 362.312 31.25L362.219 23.2812ZM360.875 14.2188C360.229 14.1771 359.625 14.4375 359.062 15C358.521 15.5417 358.042 16.25 357.625 17.125C357.229 18 356.906 18.9688 356.656 20.0312C356.406 21.0729 356.25 22.0833 356.188 23.0625C356.146 24.0208 356.208 24.875 356.375 25.625C356.562 26.375 356.885 26.8854 357.344 27.1562C357.802 27.1562 358.229 26.9792 358.625 26.625C359.021 26.25 359.385 25.7812 359.719 25.2188C360.052 24.6562 360.344 24.0312 360.594 23.3438C360.844 22.6354 361.052 21.9583 361.219 21.3125C361.406 20.6667 361.542 20.0833 361.625 19.5625C361.729 19.0208 361.781 18.6146 361.781 18.3438C361.781 18.1354 361.792 17.8021 361.812 17.3438C361.833 16.8854 361.823 16.4271 361.781 15.9688C361.74 15.5104 361.646 15.1042 361.5 14.75C361.375 14.3958 361.167 14.2188 360.875 14.2188ZM366.406 22.25C366.302 22.2708 366.146 22.3021 365.938 22.3438C365.729 22.3854 365.51 22.3958 365.281 22.375C365.052 22.3542 364.854 22.2917 364.688 22.1875C364.5 22.0833 364.406 21.9062 364.406 21.6562C364.406 21.5104 364.438 21.4062 364.5 21.3438C364.562 21.2812 364.667 21.1875 364.812 21.0625C365.271 20.6875 365.656 20.2083 365.969 19.625C366.302 19.0208 366.604 18.3854 366.875 17.7188C367.146 17.0312 367.427 16.3542 367.719 15.6875C368.031 15 368.385 14.3854 368.781 13.8438C369.177 13.3021 369.667 12.8646 370.25 12.5312C370.833 12.1979 371.552 12.0417 372.406 12.0625C372.76 12.0625 373.156 12.1458 373.594 12.3125C374.031 12.4792 374.438 12.7083 374.812 13C375.188 13.2708 375.5 13.6042 375.75 14C376 14.3958 376.125 14.8333 376.125 15.3125C376.229 15.4792 376.125 15.7188 375.812 16.0312C375.521 16.3438 375.115 16.6875 374.594 17.0625C374.073 17.4167 373.479 17.7917 372.812 18.1875C372.167 18.5625 371.542 18.9167 370.938 19.25C370.333 19.5833 369.802 19.875 369.344 20.125C368.885 20.375 368.583 20.5625 368.438 20.6875C368.333 20.8958 368.25 21.1354 368.188 21.4062C368.125 21.6771 368.073 21.9375 368.031 22.1875C368.01 22.4167 367.99 22.6354 367.969 22.8438C367.969 23.0312 367.969 23.1771 367.969 23.2812C367.969 23.6771 367.948 24.1146 367.906 24.5938C367.885 25.0729 367.906 25.5312 367.969 25.9688C368.052 26.3854 368.229 26.7396 368.5 27.0312C368.771 27.3021 369.229 27.4375 369.875 27.4375C370.562 27.4375 371.208 27.2708 371.812 26.9375C372.417 26.5833 372.979 26.1562 373.5 25.6562C374.021 25.1562 374.49 24.6146 374.906 24.0312C375.344 23.4479 375.729 22.9062 376.062 22.4062C376.417 21.8854 376.729 21.4583 377 21.125C377.271 20.7917 377.5 20.625 377.688 20.625C377.896 20.625 378.115 20.6667 378.344 20.75C378.594 20.8125 378.719 20.9792 378.719 21.25C378.719 21.625 378.562 22.0729 378.25 22.5938C377.958 23.1146 377.562 23.6667 377.062 24.25C376.583 24.8333 376.021 25.4167 375.375 26C374.75 26.5625 374.115 27.0729 373.469 27.5312C372.823 27.9688 372.188 28.3333 371.562 28.625C370.938 28.8958 370.385 29.0312 369.906 29.0312C368.969 29.0312 368.26 28.8021 367.781 28.3438C367.302 27.8854 366.958 27.3125 366.75 26.625C366.562 25.9375 366.458 25.2083 366.438 24.4375C366.438 23.6458 366.427 22.9167 366.406 22.25ZM372.156 13.8125C371.802 13.8125 371.427 13.9896 371.031 14.3438C370.635 14.6771 370.26 15.0938 369.906 15.5938C369.573 16.0729 369.292 16.5729 369.062 17.0938C368.854 17.5938 368.75 18.0104 368.75 18.3438C369.062 18.3438 369.51 18.2292 370.094 18C370.698 17.75 371.292 17.4479 371.875 17.0938C372.458 16.7396 372.969 16.3646 373.406 15.9688C373.844 15.5729 374.062 15.1979 374.062 14.8438C374.062 14.6562 373.99 14.5 373.844 14.375C373.698 14.25 373.521 14.1458 373.312 14.0625C373.125 13.9792 372.927 13.9167 372.719 13.875C372.51 13.8333 372.323 13.8125 372.156 13.8125ZM380.25 24.7188C380.104 23.7604 380.031 22.8333 380.031 21.9375C380.031 21.0208 380.083 20.0938 380.188 19.1562C380.312 18.2188 380.479 17.25 380.688 16.25C380.917 15.2292 381.177 14.1354 381.469 12.9688C381.469 12.7396 381.531 12.5312 381.656 12.3438C381.781 12.1354 381.948 11.9688 382.156 11.8438C382.365 11.6979 382.583 11.5833 382.812 11.5C383.042 11.4167 383.26 11.375 383.469 11.375C383.927 11.375 384.344 11.5208 384.719 11.8125C385.094 12.1042 385.427 12.4583 385.719 12.875C386.031 13.2917 386.292 13.7396 386.5 14.2188C386.729 14.6771 386.917 15.0729 387.062 15.4062C387.229 16.1354 387.344 16.9688 387.406 17.9062C387.49 18.8229 387.5 19.7604 387.438 20.7188C387.375 21.6771 387.229 22.625 387 23.5625C386.771 24.4792 386.448 25.3229 386.031 26.0938C385.615 26.8646 385.073 27.5104 384.406 28.0312C383.76 28.5521 382.99 28.875 382.094 29C381.615 29 381.25 28.8438 381 28.5312C380.75 28.1979 380.562 27.8021 380.438 27.3438C380.333 26.8646 380.271 26.3854 380.25 25.9062C380.25 25.4271 380.25 25.0312 380.25 24.7188ZM381.844 24.625C381.844 24.8333 381.844 25.0312 381.844 25.2188C381.865 25.4062 381.885 25.5938 381.906 25.7812C381.948 25.9479 381.99 26.1354 382.031 26.3438C382.094 26.5312 382.167 26.75 382.25 27H382.438C382.938 27 383.365 26.8333 383.719 26.5C384.073 26.1667 384.375 25.7396 384.625 25.2188C384.875 24.6771 385.083 24.0833 385.25 23.4375C385.417 22.7708 385.542 22.125 385.625 21.5C385.729 20.8542 385.792 20.2604 385.812 19.7188C385.854 19.1562 385.875 18.7083 385.875 18.375V17.75C385.875 17.4792 385.865 17.1771 385.844 16.8438C385.823 16.4896 385.781 16.1354 385.719 15.7812C385.677 15.4062 385.604 15.0729 385.5 14.7812C385.396 14.4688 385.26 14.2188 385.094 14.0312C384.927 13.8438 384.708 13.75 384.438 13.75C383.979 13.6042 383.583 13.6354 383.25 13.8438C382.938 14.0521 382.677 14.4062 382.469 14.9062C382.281 15.3854 382.135 15.9792 382.031 16.6875C381.927 17.3958 381.865 18.1771 381.844 19.0312C381.823 19.8854 381.812 20.7917 381.812 21.75C381.833 22.7083 381.844 23.6667 381.844 24.625ZM412.094 28.1875C411.99 27.6458 411.896 27 411.812 26.25C411.75 25.4792 411.677 24.7083 411.594 23.9375C411.51 23.1458 411.406 22.4062 411.281 21.7188C411.177 21.0312 411.01 20.4688 410.781 20.0312C409.719 22.1979 408.781 23.9062 407.969 25.1562C407.156 26.3854 406.438 27.2708 405.812 27.8125C405.208 28.3333 404.698 28.5833 404.281 28.5625C403.865 28.5417 403.521 28.3542 403.25 28C402.979 27.6458 402.781 27.1979 402.656 26.6562C402.552 26.0938 402.479 25.5729 402.438 25.0938C402.438 24.6354 402.542 23.9896 402.75 23.1562C402.958 22.3229 403.24 21.4167 403.594 20.4375C403.948 19.4375 404.365 18.4271 404.844 17.4062C405.344 16.3854 405.875 15.4583 406.438 14.625C407 13.7917 407.583 13.1042 408.188 12.5625C408.792 12.0208 409.396 11.75 410 11.75C410.896 11.6042 411.552 11.8021 411.969 12.3438C412.406 12.8646 412.49 13.75 412.219 15C412.219 16.375 412.271 17.5521 412.375 18.5312C412.5 19.5104 412.625 20.4479 412.75 21.3438C412.896 22.2396 413.021 23.1771 413.125 24.1562C413.25 25.1354 413.312 26.3125 413.312 27.6875C413.312 27.9375 413.281 28.1562 413.219 28.3438C413.177 28.5104 412.927 28.5938 412.469 28.5938C412.406 28.5938 412.323 28.5417 412.219 28.4375C412.135 28.3333 412.094 28.25 412.094 28.1875ZM410.406 14.2188C410.177 13.8854 409.865 13.8542 409.469 14.125C409.073 14.3958 408.656 14.8438 408.219 15.4688C407.781 16.0938 407.333 16.8438 406.875 17.7188C406.417 18.5938 405.99 19.4792 405.594 20.375C405.198 21.2708 404.854 22.125 404.562 22.9375C404.271 23.7292 404.073 24.3854 403.969 24.9062C403.969 25.6562 404.083 26.0833 404.312 26.1875C404.542 26.2708 404.823 26.1458 405.156 25.8125C405.49 25.4792 405.865 25 406.281 24.375C406.719 23.75 407.135 23.0833 407.531 22.375C407.948 21.6667 408.333 20.9792 408.688 20.3125C409.062 19.6458 409.354 19.1042 409.562 18.6875C409.75 18.25 409.896 17.8438 410 17.4688C410.104 17.0938 410.188 16.7396 410.25 16.4062C410.333 16.0521 410.375 15.6979 410.375 15.3438C410.396 14.9896 410.406 14.6146 410.406 14.2188ZM415.438 28.7812C415.333 27.1354 415.292 25.3854 415.312 23.5312C415.354 21.6771 415.406 19.6771 415.469 17.5312C415.531 15.3854 415.583 13.0625 415.625 10.5625C415.688 8.04167 415.698 5.29167 415.656 2.3125C415.885 2.3125 416.125 2.30208 416.375 2.28125C416.625 2.23958 416.844 2.22917 417.031 2.25C417.24 2.27083 417.406 2.33333 417.531 2.4375C417.677 2.54167 417.75 2.72917 417.75 3C417.75 3.77083 417.719 4.66667 417.656 5.6875C417.615 6.6875 417.552 7.79167 417.469 9C417.385 10.1875 417.312 11.4688 417.25 12.8438C417.208 14.2188 417.188 15.6667 417.188 17.1875C417.917 16.2292 418.594 15.4479 419.219 14.8438C419.844 14.2396 420.438 13.7604 421 13.4062C421.562 13.0312 422.115 12.8021 422.656 12.7188C423.198 12.6146 423.729 12.5833 424.25 12.625C424.854 12.625 425.344 12.7917 425.719 13.125C426.115 13.4583 426.417 13.875 426.625 14.375C426.833 14.875 426.979 15.4375 427.062 16.0625C427.146 16.6667 427.188 17.2604 427.188 17.8438C427.188 18.2604 427.156 18.7083 427.094 19.1875C427.052 19.6458 426.938 20.1562 426.75 20.7188C426.562 21.2812 426.271 21.8646 425.875 22.4688C425.5 23.0521 424.969 23.6771 424.281 24.3438C423.594 25.0104 422.719 25.6979 421.656 26.4062C420.615 27.1146 419.344 27.8438 417.844 28.5938C417.344 28.7396 416.938 28.8333 416.625 28.875C416.333 28.8958 416.094 28.9062 415.906 28.9062C415.74 28.8854 415.615 28.8646 415.531 28.8438C415.469 28.8229 415.438 28.8021 415.438 28.7812ZM416.781 26.9062C416.885 26.8438 417.167 26.7083 417.625 26.5C418.083 26.2708 418.625 25.9792 419.25 25.625C419.875 25.2708 420.552 24.8438 421.281 24.3438C422.01 23.8438 422.677 23.2604 423.281 22.5938C423.906 21.9271 424.438 21.1771 424.875 20.3438C425.312 19.5104 425.573 18.5938 425.656 17.5938C425.656 17.3021 425.615 16.9896 425.531 16.6562C425.448 16.3229 425.312 16.0104 425.125 15.7188C424.958 15.4271 424.74 15.1875 424.469 15C424.198 14.7917 423.875 14.6875 423.5 14.6875C422.729 14.6875 422 14.8958 421.312 15.3125C420.646 15.7292 420.031 16.25 419.469 16.875C418.906 17.5 418.406 18.1771 417.969 18.9062C417.531 19.6146 417.177 20.2708 416.906 20.875L416.781 26.9062ZM429.062 24.7188C428.917 23.7604 428.844 22.8333 428.844 21.9375C428.844 21.0208 428.896 20.0938 429 19.1562C429.125 18.2188 429.292 17.25 429.5 16.25C429.729 15.2292 429.99 14.1354 430.281 12.9688C430.281 12.7396 430.344 12.5312 430.469 12.3438C430.594 12.1354 430.76 11.9688 430.969 11.8438C431.177 11.6979 431.396 11.5833 431.625 11.5C431.854 11.4167 432.073 11.375 432.281 11.375C432.74 11.375 433.156 11.5208 433.531 11.8125C433.906 12.1042 434.24 12.4583 434.531 12.875C434.844 13.2917 435.104 13.7396 435.312 14.2188C435.542 14.6771 435.729 15.0729 435.875 15.4062C436.042 16.1354 436.156 16.9688 436.219 17.9062C436.302 18.8229 436.312 19.7604 436.25 20.7188C436.188 21.6771 436.042 22.625 435.812 23.5625C435.583 24.4792 435.26 25.3229 434.844 26.0938C434.427 26.8646 433.885 27.5104 433.219 28.0312C432.573 28.5521 431.802 28.875 430.906 29C430.427 29 430.062 28.8438 429.812 28.5312C429.562 28.1979 429.375 27.8021 429.25 27.3438C429.146 26.8646 429.083 26.3854 429.062 25.9062C429.062 25.4271 429.062 25.0312 429.062 24.7188ZM430.656 24.625C430.656 24.8333 430.656 25.0312 430.656 25.2188C430.677 25.4062 430.698 25.5938 430.719 25.7812C430.76 25.9479 430.802 26.1354 430.844 26.3438C430.906 26.5312 430.979 26.75 431.062 27H431.25C431.75 27 432.177 26.8333 432.531 26.5C432.885 26.1667 433.188 25.7396 433.438 25.2188C433.688 24.6771 433.896 24.0833 434.062 23.4375C434.229 22.7708 434.354 22.125 434.438 21.5C434.542 20.8542 434.604 20.2604 434.625 19.7188C434.667 19.1562 434.688 18.7083 434.688 18.375V17.75C434.688 17.4792 434.677 17.1771 434.656 16.8438C434.635 16.4896 434.594 16.1354 434.531 15.7812C434.49 15.4062 434.417 15.0729 434.312 14.7812C434.208 14.4688 434.073 14.2188 433.906 14.0312C433.74 13.8438 433.521 13.75 433.25 13.75C432.792 13.6042 432.396 13.6354 432.062 13.8438C431.75 14.0521 431.49 14.4062 431.281 14.9062C431.094 15.3854 430.948 15.9792 430.844 16.6875C430.74 17.3958 430.677 18.1771 430.656 19.0312C430.635 19.8854 430.625 20.7917 430.625 21.75C430.646 22.7083 430.656 23.6667 430.656 24.625ZM445.562 25.375C445.479 25.625 445.271 25.9688 444.938 26.4062C444.625 26.8229 444.25 27.25 443.812 27.6875C443.375 28.1042 442.917 28.4792 442.438 28.8125C441.979 29.125 441.573 29.2812 441.219 29.2812C440.552 29.2812 440 28.9688 439.562 28.3438C439.146 27.7188 438.823 26.9167 438.594 25.9375C438.365 24.9583 438.208 23.875 438.125 22.6875C438.042 21.4792 437.99 20.3021 437.969 19.1562C437.948 18.0104 437.938 16.9688 437.938 16.0312C437.938 15.0938 437.906 14.3854 437.844 13.9062C437.927 13.6979 438.031 13.5729 438.156 13.5312C438.302 13.4896 438.469 13.4688 438.656 13.4688C438.823 13.4688 438.969 13.4896 439.094 13.5312C439.24 13.5729 439.365 13.6979 439.469 13.9062C439.469 14.1354 439.469 14.5208 439.469 15.0625C439.49 15.6042 439.521 16.2188 439.562 16.9062C439.604 17.5729 439.646 18.2812 439.688 19.0312C439.729 19.7604 439.76 20.4583 439.781 21.125C439.823 21.7917 439.854 22.3958 439.875 22.9375C439.917 23.4583 439.948 23.8438 439.969 24.0938C439.99 24.2396 440.01 24.4792 440.031 24.8125C440.073 25.1458 440.125 25.5 440.188 25.875C440.271 26.2292 440.365 26.5521 440.469 26.8438C440.594 27.1354 440.75 27.2917 440.938 27.3125C441.25 27.3125 441.562 27.1771 441.875 26.9062C442.208 26.6354 442.531 26.2917 442.844 25.875C443.156 25.4583 443.448 25 443.719 24.5C443.99 24 444.229 23.5208 444.438 23.0625C444.667 22.5833 444.833 22.1562 444.938 21.7812C445.062 21.4062 445.135 21.1354 445.156 20.9688C445.198 20.6146 445.24 20.1146 445.281 19.4688C445.323 18.8021 445.354 18.0938 445.375 17.3438C445.396 16.5938 445.406 15.8854 445.406 15.2188C445.427 14.5521 445.438 14.0417 445.438 13.6875L447.156 13.7812C447.177 15.4688 447.167 17 447.125 18.375C447.083 19.7292 447.073 21.0104 447.094 22.2188C447.115 23.4062 447.208 24.5625 447.375 25.6875C447.542 26.8125 447.844 27.9792 448.281 29.1875C448.219 29.25 448.094 29.3333 447.906 29.4375C447.719 29.5625 447.583 29.625 447.5 29.625C446.979 29.625 446.625 29.4479 446.438 29.0938C446.271 28.7604 446.156 28.3646 446.094 27.9062C446.052 27.4271 446.01 26.9583 445.969 26.5C445.948 26.0208 445.812 25.6458 445.562 25.375ZM450.875 15.6562C450.667 15.7604 450.469 15.875 450.281 16C450.115 16.1042 449.948 16.2083 449.781 16.3125C449.615 16.3958 449.448 16.4583 449.281 16.5C449.115 16.5417 448.938 16.5417 448.75 16.5C448.625 16.5 448.521 16.4271 448.438 16.2812C448.354 16.1146 448.292 15.9375 448.25 15.75C448.188 15.5417 448.146 15.3438 448.125 15.1562C448.104 14.9479 448.104 14.7917 448.125 14.6875L451.125 12.9688L451.312 4.96875C451.354 4.69792 451.521 4.59375 451.812 4.65625C452.104 4.69792 452.406 4.76042 452.719 4.84375C452.76 4.84375 452.823 4.86458 452.906 4.90625C453.01 4.92708 453.083 4.94792 453.125 4.96875C453.083 5.53125 453.031 6.14583 452.969 6.8125C452.927 7.45833 452.885 8.11458 452.844 8.78125C452.802 9.42708 452.771 10.0625 452.75 10.6875C452.75 11.3125 452.781 11.875 452.844 12.375L457.531 11.0625C457.615 11.0417 457.677 11.1042 457.719 11.25C457.781 11.375 457.833 11.5312 457.875 11.7188C457.938 11.9062 457.979 12.0938 458 12.2812C458.021 12.4688 458.031 12.5625 458.031 12.5625L452.719 14.8125C452.719 15 452.729 15.4479 452.75 16.1562C452.792 16.8646 452.833 17.7083 452.875 18.6875C452.917 19.6458 452.958 20.6875 453 21.8125C453.042 22.9167 453.083 23.9479 453.125 24.9062C453.167 25.8646 453.198 26.7083 453.219 27.4375C453.24 28.1458 453.25 28.5938 453.25 28.7812C453.208 29.4062 453.021 29.7188 452.688 29.7188C452.375 29.7188 452.031 29.5625 451.656 29.25L450.875 15.6562ZM480.969 25.375C480.885 25.625 480.677 25.9688 480.344 26.4062C480.031 26.8229 479.656 27.25 479.219 27.6875C478.781 28.1042 478.323 28.4792 477.844 28.8125C477.385 29.125 476.979 29.2812 476.625 29.2812C475.958 29.2812 475.406 28.9688 474.969 28.3438C474.552 27.7188 474.229 26.9167 474 25.9375C473.771 24.9583 473.615 23.875 473.531 22.6875C473.448 21.4792 473.396 20.3021 473.375 19.1562C473.354 18.0104 473.344 16.9688 473.344 16.0312C473.344 15.0938 473.312 14.3854 473.25 13.9062C473.333 13.6979 473.438 13.5729 473.562 13.5312C473.708 13.4896 473.875 13.4688 474.062 13.4688C474.229 13.4688 474.375 13.4896 474.5 13.5312C474.646 13.5729 474.771 13.6979 474.875 13.9062C474.875 14.1354 474.875 14.5208 474.875 15.0625C474.896 15.6042 474.927 16.2188 474.969 16.9062C475.01 17.5729 475.052 18.2812 475.094 19.0312C475.135 19.7604 475.167 20.4583 475.188 21.125C475.229 21.7917 475.26 22.3958 475.281 22.9375C475.323 23.4583 475.354 23.8438 475.375 24.0938C475.396 24.2396 475.417 24.4792 475.438 24.8125C475.479 25.1458 475.531 25.5 475.594 25.875C475.677 26.2292 475.771 26.5521 475.875 26.8438C476 27.1354 476.156 27.2917 476.344 27.3125C476.656 27.3125 476.969 27.1771 477.281 26.9062C477.615 26.6354 477.938 26.2917 478.25 25.875C478.562 25.4583 478.854 25 479.125 24.5C479.396 24 479.635 23.5208 479.844 23.0625C480.073 22.5833 480.24 22.1562 480.344 21.7812C480.469 21.4062 480.542 21.1354 480.562 20.9688C480.604 20.6146 480.646 20.1146 480.688 19.4688C480.729 18.8021 480.76 18.0938 480.781 17.3438C480.802 16.5938 480.812 15.8854 480.812 15.2188C480.833 14.5521 480.844 14.0417 480.844 13.6875L482.562 13.7812C482.583 15.4688 482.573 17 482.531 18.375C482.49 19.7292 482.479 21.0104 482.5 22.2188C482.521 23.4062 482.615 24.5625 482.781 25.6875C482.948 26.8125 483.25 27.9792 483.688 29.1875C483.625 29.25 483.5 29.3333 483.312 29.4375C483.125 29.5625 482.99 29.625 482.906 29.625C482.385 29.625 482.031 29.4479 481.844 29.0938C481.677 28.7604 481.562 28.3646 481.5 27.9062C481.458 27.4271 481.417 26.9583 481.375 26.5C481.354 26.0208 481.219 25.6458 480.969 25.375ZM487.906 28.5312C487.906 28.5521 488.125 28.4271 488.562 28.1562C489.021 27.8854 489.552 27.5312 490.156 27.0938C490.781 26.6354 491.417 26.1458 492.062 25.625C492.708 25.0833 493.24 24.5729 493.656 24.0938C494.073 23.6146 494.292 23.2083 494.312 22.875C494.354 22.5208 494.073 22.2917 493.469 22.1875C492.719 22.0833 492.083 22.0938 491.562 22.2188C491.062 22.3438 490.604 22.4896 490.188 22.6562C489.771 22.8229 489.375 22.9792 489 23.125C488.646 23.2708 488.25 23.3229 487.812 23.2812C486.896 23.2812 486.26 23 485.906 22.4375C485.573 21.8542 485.406 21.0729 485.406 20.0938C485.406 19.1146 485.625 18.1875 486.062 17.3125C486.5 16.4167 487.062 15.6458 487.75 15C488.438 14.3542 489.229 13.8438 490.125 13.4688C491.021 13.0729 491.938 12.875 492.875 12.875C493.25 12.875 493.573 12.9062 493.844 12.9688C494.115 13.0312 494.25 13.2708 494.25 13.6875C494.25 13.9792 494.125 14.2604 493.875 14.5312C493.625 14.7812 493.344 14.9062 493.031 14.9062C493.01 14.9062 492.958 14.8958 492.875 14.875C492.792 14.8333 492.708 14.7812 492.625 14.7188C492.542 14.6562 492.458 14.6146 492.375 14.5938C492.292 14.5521 492.24 14.5312 492.219 14.5312C491.552 14.3438 490.906 14.4375 490.281 14.8125C489.656 15.1875 489.094 15.6979 488.594 16.3438C488.115 16.9688 487.729 17.6562 487.438 18.4062C487.146 19.1354 487 19.7917 487 20.375C487 20.6042 487.042 20.7917 487.125 20.9375C487.229 21.0625 487.354 21.1562 487.5 21.2188C487.667 21.2812 487.844 21.3229 488.031 21.3438C488.24 21.3438 488.448 21.3438 488.656 21.3438C489.073 21.3438 489.49 21.2812 489.906 21.1562C490.344 21.0312 490.76 20.8854 491.156 20.7188C491.573 20.5521 491.99 20.4062 492.406 20.2812C492.844 20.1562 493.292 20.0938 493.75 20.0938C493.958 20.0938 494.188 20.1562 494.438 20.2812C494.688 20.3854 494.917 20.5521 495.125 20.7812C495.333 20.9896 495.51 21.2396 495.656 21.5312C495.802 21.8021 495.885 22.1042 495.906 22.4375C496.031 22.7292 495.99 23.1146 495.781 23.5938C495.594 24.0729 495.302 24.5833 494.906 25.125C494.51 25.6667 494.031 26.2188 493.469 26.7812C492.906 27.3229 492.344 27.8229 491.781 28.2812C491.219 28.7188 490.667 29.0729 490.125 29.3438C489.583 29.6354 489.125 29.7708 488.75 29.75C488.333 29.75 488.083 29.625 488 29.375C487.938 29.125 487.906 28.8438 487.906 28.5312ZM496.875 13.7188C496.875 11.8021 496.917 9.90625 497 8.03125C497.083 6.13542 497.188 4.1875 497.312 2.1875C497.375 2.02083 497.448 1.91667 497.531 1.875C497.615 1.8125 497.729 1.78125 497.875 1.78125C498.083 1.78125 498.229 1.84375 498.312 1.96875C498.396 2.07292 498.448 2.19792 498.469 2.34375C498.51 2.48958 498.521 2.65625 498.5 2.84375C498.5 3.01042 498.5 3.15625 498.5 3.28125V12.8438C498.5 13.2188 498.531 13.6146 498.594 14.0312L498.781 15.2812C498.865 15.6979 498.917 16.0938 498.938 16.4688C498.979 16.8229 498.958 17.125 498.875 17.375C498.833 17.6042 498.708 17.8021 498.5 17.9688C498.312 18.1354 498.104 18.2188 497.875 18.2188C497.5 18.2188 497.24 18.0312 497.094 17.6562C496.948 17.2812 496.854 16.8438 496.812 16.3438C496.792 15.8438 496.792 15.3438 496.812 14.8438C496.854 14.3438 496.875 13.9688 496.875 13.7188ZM498.844 28.25V27.75C498.844 27.6458 498.854 27.5417 498.875 27.4375C498.896 27.3125 498.938 27.2083 499 27.125C499.062 27.0417 499.156 27 499.281 27C499.698 27 499.938 27.1042 500 27.3125C500.083 27.5 500.125 27.7292 500.125 28C500.125 28.2917 500.083 28.5312 500 28.7188C499.938 28.9062 499.698 29 499.281 29C499.156 29 499.062 28.9583 499 28.875C498.938 28.7917 498.896 28.6979 498.875 28.5938C498.854 28.4688 498.844 28.3542 498.844 28.25Z" fill="#00563B"/>
<path d="M528 16C528 14.55 527.633 13.1875 526.9 11.9125C526.167 10.6375 525.167 9.525 523.9 8.575C522.633 7.625 521.15 6.875 519.45 6.325C517.75 5.775 515.933 5.5 514 5.5V4C516.2 4 518.271 4.31575 520.212 4.94725C522.153 5.57875 523.849 6.438 525.3 7.525C526.75 8.6125 527.896 9.8845 528.738 11.341C529.58 12.7975 530.001 14.3505 530 16H528Z" fill="#00563B"/>
<path d="M536 22.75L529 31L522 22.75L528 25.3188V16H530V25.3188L536 22.75Z" fill="#00563B"/>
</svg>
