<?xml version="1.0" encoding="utf-8"?><svg xmlns="http://www.w3.org/2000/svg" xmlns:xlink="http://www.w3.org/1999/xlink" width="1560" height="1187" preserveAspectRatio="xMidYMid" viewBox="0 0 1560 1187" style="z-index:1;margin-right:-2px;display:block;background-repeat-y:initial;background-repeat-x:initial;background-color:rgb(72, 168, 96);animation-play-state:paused" ><g transform="translate(780,593.5) scale(1,1) translate(-780,-593.5)" style="transform:matrix(1, 0, 0, 1, 0, 0);animation-play-state:paused" ><defs style="animation-play-state:paused" ><filter id="blur-xruxe3a8ll9-1" x="-1" y="-1" width="3" height="3" style="animation-play-state:paused" ><feGaussianBlur stdDeviation="3" style="animation-play-state:paused" ></feGaussianBlur></filter>
<filter id="blur-xruxe3a8ll9-2" x="-1" y="-1" width="3" height="3" style="animation-play-state:paused" ><feGaussianBlur stdDeviation="1.5" style="animation-play-state:paused" ></feGaussianBlur></filter>
<filter id="blur-xruxe3a8ll9-3" x="-1" y="-1" width="3" height="3" style="animation-play-state:paused" ><feGaussianBlur stdDeviation="1" style="animation-play-state:paused" ></feGaussianBlur></filter></defs>
<circle cx="487.9956885590692" cy="0" transform="matrix(1,0,0,1,0,241.1619873046875)" r="108.95137322088948" fill="#5dbb63" opacity="0.36000000000000004" style="transform:matrix(1, 0, 0, 1, 0, 241.162);opacity:0.36;animation-play-state:paused" ></circle>
<circle cx="493.20341374686757" cy="0" transform="matrix(1,0,0,1,0,380.5888671875)" r="169.39734569694923" fill="#99edb3" opacity="0.63" style="transform:matrix(1, 0, 0, 1, 0, 380.589);opacity:0.63;animation-play-state:paused" ></circle>
<circle cx="1156.0829622745848" cy="0" transform="matrix(1,0,0,1,0,745.2295532226562)" r="209.972059602827" fill="#5dbb63" opacity="0.7200000000000001" style="transform:matrix(1, 0, 0, 1, 0, 745.23);opacity:0.72;animation-play-state:paused" ></circle>
<circle cx="687.5064144315144" cy="0" transform="matrix(1,0,0,1,0,282.0240478515625)" r="213.80322693837257" fill="#5dbb63" opacity="0.7200000000000001" style="transform:matrix(1, 0, 0, 1, 0, 282.024);opacity:0.72;animation-play-state:paused" ></circle>
<circle cx="937.8681812080081" cy="0" transform="matrix(1,0,0,1,0,190.2498779296875)" r="230.13797601271116" fill="#99edb3" opacity="0.7200000000000001" style="transform:matrix(1, 0, 0, 1, 0, 190.25);opacity:0.72;animation-play-state:paused" ></circle>
<circle cx="120.73347790185143" cy="0" transform="matrix(1,0,0,1,0,811.1373901367188)" r="114.1903881576441" fill="#5dbb63" opacity="0.36000000000000004" style="transform:matrix(1, 0, 0, 1, 0, 811.137);opacity:0.36;animation-play-state:paused" ></circle>
<circle cx="1452.133670196404" cy="0" transform="matrix(1,0,0,1,0,962.5335693359375)" r="169.18551417270902" fill="#99edb3" opacity="0.63" style="transform:matrix(1, 0, 0, 1, 0, 962.534);opacity:0.63;animation-play-state:paused" ></circle>
<circle cx="156.65572697143537" cy="0" transform="matrix(1,0,0,1,0,728.2409057617188)" r="238.48545629239405" fill="#5dbb63" opacity="0.7200000000000001" style="transform:matrix(1, 0, 0, 1, 0, 728.241);opacity:0.72;animation-play-state:paused" ></circle>
<circle cx="405.2159415741881" cy="0" transform="matrix(1,0,0,1,0,910.7549438476562)" r="152.78795969106687" fill="#5dbb63" opacity="0.63" style="transform:matrix(1, 0, 0, 1, 0, 910.755);opacity:0.63;animation-play-state:paused" ></circle>
<circle cx="1124.3584482328183" cy="0" transform="matrix(1,0,0,1,0,592.264404296875)" r="78.06692357413945" fill="#5dbb63" opacity="0.36000000000000004" style="transform:matrix(1, 0, 0, 1, 0, 592.264);opacity:0.36;animation-play-state:paused" ></circle>
<circle cx="138.80457501368" cy="0" transform="matrix(1,0,0,1,0,1084.076416015625)" r="121.56998287943765" fill="#99edb3" opacity="0.36000000000000004" style="transform:matrix(1, 0, 0, 1, 0, 1084.08);opacity:0.36;animation-play-state:paused" ></circle>
<circle cx="881.5222884955399" cy="0" transform="matrix(1,0,0,1,0,501.418212890625)" r="72.23136506512952" fill="#99edb3" opacity="0.36000000000000004" style="transform:matrix(1, 0, 0, 1, 0, 501.418);opacity:0.36;animation-play-state:paused" ></circle>
<circle cx="209.07397624882609" cy="0" transform="matrix(1,0,0,1,0,724.133544921875)" r="129.41522215814513" fill="#5dbb63" opacity="0.63" style="transform:matrix(1, 0, 0, 1, 0, 724.134);opacity:0.63;animation-play-state:paused" ></circle>
<circle cx="1387.7991066664206" cy="0" transform="matrix(1,0,0,1,0,-41.467529296875)" r="165.62040399417322" fill="#5dbb63" opacity="0.63" style="transform:matrix(1, 0, 0, 1, 0, -41.4675);opacity:0.63;animation-play-state:paused" ></circle>
<circle cx="792.6706161492692" cy="0" transform="matrix(1,0,0,1,0,535.6296997070312)" r="106.74547323558454" fill="#5dbb63" opacity="0.36000000000000004" style="transform:matrix(1, 0, 0, 1, 0, 535.63);opacity:0.36;animation-play-state:paused" ></circle></g></svg>