<svg width="35" height="35" viewBox="0 0 38 30" fill="none" xmlns="http://www.w3.org/2000/svg">
<path d="M38 3.55855C36.6026 4.1599 35.1014 4.56621 33.5232 4.74987C35.1516 3.80363 36.3699 2.31435 36.9507 0.559934C35.4208 1.44244 33.7464 2.06362 32.0003 2.39648C30.8261 1.17894 29.2708 0.371933 27.5759 0.100754C25.881 -0.170425 24.1414 0.109396 22.627 0.896774C21.1127 1.68415 19.9084 2.93503 19.2011 4.45521C18.4938 5.97539 18.3231 7.67981 18.7155 9.30386C15.6155 9.1527 12.5829 8.37022 9.8145 7.00721C7.04608 5.64419 4.60372 3.73109 2.64591 1.39207C1.97648 2.5135 1.59156 3.81371 1.59156 5.19844C1.59081 6.44501 1.90692 7.67249 2.51182 8.77196C3.11672 9.87144 3.99173 10.8089 5.05919 11.5012C3.82121 11.463 2.61055 11.1381 1.52797 10.5537V10.6512C1.52784 12.3996 2.15059 14.0941 3.29054 15.4474C4.43049 16.8006 6.01743 17.7291 7.78208 18.0754C6.63366 18.3773 5.42961 18.4217 4.2609 18.2054C4.75878 19.7098 5.72861 21.0253 7.03461 21.9678C8.34062 22.9103 9.91742 23.4326 11.5443 23.4615C8.7826 25.5669 5.37196 26.709 1.86101 26.7039C1.23908 26.7041 0.617674 26.6688 0 26.5983C3.56382 28.8236 7.71236 30.0046 11.9493 30C26.2917 30 34.1324 18.4639 34.1324 8.45872C34.1324 8.13367 34.124 7.80537 34.109 7.48031C35.6341 6.40922 36.9505 5.08288 37.9967 3.56342L38 3.55855Z" fill="#F5F5F5"/>
</svg>
