<svg width="35px" height="35px" viewBox="0 0 42 41" fill="none" xmlns="http://www.w3.org/2000/svg">
<path fill-rule="evenodd" clip-rule="evenodd" d="M12.3423 0.123C14.5816 0.0223636 15.2956 0 21 0C26.7044 0 27.4184 0.0242272 29.6558 0.123C31.8933 0.221773 33.4205 0.570273 34.7569 1.07532C36.1563 1.59155 37.4258 2.3985 38.4758 3.44214C39.5449 4.46527 40.3696 5.70273 40.8965 7.07064C41.4158 8.37518 41.7709 9.86609 41.874 12.0465C41.9771 14.2363 42 14.9333 42 20.5C42 26.0685 41.9752 26.7655 41.874 28.9516C41.7728 31.132 41.4158 32.623 40.8965 33.9275C40.3696 35.2956 39.5435 36.5351 38.4758 37.5597C37.4258 38.6034 36.1563 39.4085 34.7569 39.9228C33.4205 40.4297 31.8933 40.7764 29.6596 40.877C27.4184 40.9776 26.7044 41 21 41C15.2956 41 14.5816 40.9758 12.3423 40.877C10.1086 40.7782 8.58136 40.4297 7.245 39.9228C5.84358 39.4084 4.57384 38.602 3.52418 37.5597C2.45582 36.536 1.62906 35.2971 1.10155 33.9294C0.584182 32.6248 0.229091 31.1339 0.126 28.9535C0.0229091 26.7637 0 26.0667 0 20.5C0 14.9315 0.0248182 14.2345 0.126 12.0503C0.227182 9.86609 0.584182 8.37518 1.10155 7.07064C1.62983 5.70288 2.45723 4.46399 3.52609 3.44027C4.57426 2.39757 5.84272 1.59051 7.24309 1.07532C8.57945 0.570273 10.1067 0.223636 12.3404 0.123H12.3423ZM29.4859 3.813C27.2714 3.71423 26.607 3.69373 21 3.69373C15.393 3.69373 14.7286 3.71423 12.5141 3.813C10.4656 3.90432 9.35455 4.23791 8.61382 4.51932C7.63445 4.89205 6.93382 5.33373 6.19882 6.05123C5.50209 6.71291 4.96589 7.51844 4.62955 8.40873C4.34127 9.13182 3.99955 10.2165 3.906 12.2161C3.80482 14.378 3.78382 15.0265 3.78382 20.5C3.78382 25.9735 3.80482 26.622 3.906 28.7839C3.99955 30.7835 4.34127 31.8682 4.62955 32.5913C4.96555 33.4802 5.502 34.2872 6.19882 34.9488C6.87655 35.629 7.70318 36.1527 8.61382 36.4807C9.35455 36.7621 10.4656 37.0957 12.5141 37.187C14.7286 37.2858 15.3911 37.3063 21 37.3063C26.6089 37.3063 27.2714 37.2858 29.4859 37.187C31.5344 37.0957 32.6455 36.7621 33.3862 36.4807C34.3655 36.108 35.0662 35.6663 35.8012 34.9488C36.498 34.2872 37.0345 33.4802 37.3705 32.5913C37.6587 31.8682 38.0005 30.7835 38.094 28.7839C38.1952 26.622 38.2162 25.9735 38.2162 20.5C38.2162 15.0265 38.1952 14.378 38.094 12.2161C38.0005 10.2165 37.6587 9.13182 37.3705 8.40873C36.9886 7.45268 36.5362 6.76873 35.8012 6.05123C35.1233 5.37113 34.2982 4.84771 33.3862 4.51932C32.6455 4.23791 31.5344 3.90432 29.4859 3.813ZM18.3177 26.8196C19.8157 27.4283 21.4837 27.5105 23.0369 27.052C24.59 26.5936 25.9319 25.623 26.8334 24.306C27.7349 22.989 28.1401 21.4074 27.9797 19.8312C27.8193 18.2549 27.1034 16.782 25.9541 15.6639C25.2215 14.9491 24.3356 14.4018 23.3603 14.0614C22.385 13.721 21.3445 13.5959 20.3137 13.6951C19.2829 13.7944 18.2875 14.1155 17.3991 14.6354C16.5107 15.1552 15.7514 15.8609 15.1759 16.7016C14.6005 17.5423 14.2231 18.4971 14.071 19.4973C13.9189 20.4975 13.9958 21.5181 14.2963 22.4857C14.5968 23.4534 15.1133 24.344 15.8086 25.0933C16.504 25.8427 17.3609 26.4323 18.3177 26.8196ZM13.3675 13.0492C14.3698 12.0707 15.5597 11.2946 16.8693 10.765C18.1789 10.2355 19.5825 9.96295 21 9.96295C22.4175 9.96295 23.8211 10.2355 25.1307 10.765C26.4403 11.2946 27.6302 12.0707 28.6325 13.0492C29.6349 14.0276 30.4299 15.1892 30.9724 16.4676C31.5149 17.7461 31.794 19.1163 31.794 20.5C31.794 21.8837 31.5149 23.2539 30.9724 24.5324C30.4299 25.8108 29.6349 26.9724 28.6325 27.9508C26.6083 29.9269 23.8628 31.037 21 31.037C18.1372 31.037 15.3917 29.9269 13.3675 27.9508C11.3432 25.9747 10.206 23.2946 10.206 20.5C10.206 17.7054 11.3432 15.0253 13.3675 13.0492ZM34.188 11.5322C34.4364 11.3035 34.6352 11.0284 34.7728 10.7233C34.9103 10.4182 34.9837 10.0893 34.9887 9.75601C34.9937 9.42272 34.9301 9.09184 34.8017 8.78296C34.6734 8.47409 34.4828 8.1935 34.2414 7.9578C33.9999 7.7221 33.7125 7.53609 33.3961 7.41078C33.0797 7.28547 32.7407 7.22341 32.3993 7.22827C32.0579 7.23313 31.7209 7.30481 31.4084 7.43907C31.0959 7.57333 30.8141 7.76744 30.5798 8.00991C30.1241 8.48146 29.8747 9.10782 29.8843 9.75601C29.894 10.4042 30.1621 11.0232 30.6317 11.4816C31.1012 11.94 31.7353 12.2017 32.3993 12.2111C33.0633 12.2206 33.7049 11.977 34.188 11.5322Z" fill="#F5F5F5"/>
</svg>
